<?xml version="1.0" encoding="UTF-8" standalone="no"?>
<svg
   xmlns:dc="http://purl.org/dc/elements/1.1/"
   xmlns:cc="http://creativecommons.org/ns#"
   xmlns:rdf="http://www.w3.org/1999/02/22-rdf-syntax-ns#"
   xmlns:svg="http://www.w3.org/2000/svg"
   xmlns="http://www.w3.org/2000/svg"
   xmlns:xlink="http://www.w3.org/1999/xlink"
   xmlns:sodipodi="http://sodipodi.sourceforge.net/DTD/sodipodi-0.dtd"
   xmlns:inkscape="http://www.inkscape.org/namespaces/inkscape"
   width="1366.7566"
   height="506.45135"
   viewBox="0 0 361.621 133.99859"
   version="1.1"
   id="svg8"
   sodipodi:docname="logo.svg"
   inkscape:version="0.92.4 (5da689c313, 2019-01-14)">
  <sodipodi:namedview
     pagecolor="#ffffff"
     bordercolor="#666666"
     borderopacity="1"
     objecttolerance="10"
     gridtolerance="10"
     guidetolerance="10"
     inkscape:pageopacity="0"
     inkscape:pageshadow="2"
     inkscape:window-width="1920"
     inkscape:window-height="1017"
     id="namedview20"
     showgrid="false"
     inkscape:zoom="0.90537259"
     inkscape:cx="862.46808"
     inkscape:cy="250.18787"
     inkscape:window-x="1358"
     inkscape:window-y="-8"
     inkscape:window-maximized="1"
     inkscape:current-layer="svg8"
     showguides="true"
     inkscape:guide-bbox="true" />
  <defs
     id="defs2">
    <rect
       x="126.03262"
       y="97.675278"
       width="236.31116"
       height="14.17867"
       id="rect855" />
    <linearGradient
       id="linearGradient1162-1-9-9-9-7">
      <stop
         style="stop-color:#1e4d2d;stop-opacity:1"
         offset="0"
         id="stop1191" />
      <stop
         style="stop-color:#a7ce3a;stop-opacity:1"
         offset="1"
         id="stop1193" />
    </linearGradient>
    <linearGradient
       xlink:href="#linearGradient1162-1-9-9-9-7"
       id="linearGradient1201"
       gradientUnits="userSpaceOnUse"
       x1="184.02997"
       y1="35.881203"
       x2="3.0287659"
       y2="285.21378"
       gradientTransform="matrix(0.5335886,0,0,0.5335886,32.610595,6.5904401)" />
  </defs>
  <metadata
     id="metadata5">
    <rdf:RDF>
      <cc:Work
         rdf:about="">
        <dc:format>image/svg+xml</dc:format>
        <dc:type
           rdf:resource="http://purl.org/dc/dcmitype/StillImage" />
        <dc:title />
      </cc:Work>
    </rdf:RDF>
  </metadata>
  <g
     id="layer1"
     style="display:inline"
     transform="translate(-34.226711,-24.848377)">
    <path
       style="opacity:1;mix-blend-mode:normal;fill:url(#linearGradient1201);fill-opacity:1;fill-rule:nonzero;stroke-width:0.50867301"
       d="m 34.226711,158.77725 c 1.679977,-2.49191 2.133969,-3.39349 4.207719,-8.26934 0.855802,-2.0225 2.142229,-5.70579 2.057987,-13.95315 -0.0452,-4.42194 -0.318221,-9.11445 -0.606792,-10.42778 -0.288559,-1.31331 -0.888599,-4.79133 -1.33342,-7.72891 -0.444837,-2.93759 -1.051134,-6.82896 -1.347317,-8.64745 -3.482209,-21.37948 3.720328,-42.353162 17.750113,-51.688068 7.084743,-4.713941 11.756312,-6.474796 28.867313,-10.881056 9.209796,-2.149961 15.626691,-4.294847 19.075256,-5.687593 6.82989,-2.807837 10.82842,-6.518195 10.82842,-6.518195 2.15892,-1.813284 4.94784,-4.25232 7.47146,-7.884424 1.7244,-2.48185 2.05376,-2.766946 1.76281,-1.526039 -1.08988,4.648825 -5.35519,11.609049 -9.51372,15.524788 -3.38283,3.18527 -11.573,8.561106 -19.705086,12.933909 -12.379357,6.656673 -12.482085,6.71606 -18.781543,10.857311 -7.332988,4.820685 -11.631023,8.920796 -14.775092,14.094652 -4.637866,7.632035 -5.921588,13.102763 -7.877796,33.572395 -1.268766,13.27634 -2.114242,18.53328 -3.845107,23.90766 -1.942823,6.03257 -2.79655,7.80624 -6.412183,13.32177 -2.168433,3.30784 -7.823022,9.81283 -7.823022,8.99952 z m 20.405318,-9.89164 c 2.649865,-3.25633 5.945086,-10.10539 7.105935,-14.7696 0.551383,-2.21536 1.452117,-7.26014 2.001619,-11.21058 2.490961,-17.90773 3.078956,-20.36529 6.470335,-27.043368 2.062279,-4.060876 3.605733,-6.322268 5.912573,-8.662846 3.29918,-3.347414 8.37773,-7.159703 11.769219,-8.834681 4.15606,-2.052567 16.15572,-8.548612 18.88898,-10.225571 6.05303,-3.713736 12.95717,-10.107535 16.3111,-15.105376 2.75158,-4.10027 5.09147,-8.815691 6.81517,-13.734155 1.6073,-4.58642 1.60796,-4.648729 -0.079,7.630075 -2.82255,20.545045 -6.12176,34.658494 -10.97793,46.961329 0,0 -1.11442,3.221878 -2.9714,7.084453 -1.72001,3.76661 -3.96451,6.87155 -6.07072,10.047 -3.7185,5.69917 -7.63202,9.9347 -14.521809,15.71674 -5.40785,5.00723 -12.026146,9.63228 -17.676598,12.61573 -7.204136,3.9416 -14.496918,7.94473 -21.255566,10.43608 -0.839325,0.30224 -3.974915,1.81086 -3.974915,1.81086 0,0 1.396172,-1.65789 2.25303,-2.71609 z"
       id="path830"
       inkscape:connector-curvature="0" />
    <ellipse
       style="opacity:0.98000004;fill:#517830;fill-opacity:1;fill-rule:evenodd;stroke-width:0.88038301;stroke-linejoin:round"
       id="path895"
       cx="54.81797"
       cy="138.95219"
       rx="4.1062212"
       ry="3.9595704" />
    <ellipse
       style="opacity:0.98000004;fill:#607529;fill-opacity:1;fill-rule:evenodd;stroke-width:0.99437398;stroke-linejoin:round"
       id="path895-8"
       cx="57.373024"
       cy="126.40893"
       rx="4.6378722"
       ry="4.4722347" />
    <ellipse
       style="opacity:0.98000004;fill:#6f9039;fill-opacity:1;fill-rule:evenodd;stroke-width:1.19351995;stroke-linejoin:round"
       id="path895-8-9"
       cx="59.039906"
       cy="112.19005"
       rx="5.5666981"
       ry="5.3678875" />
    <ellipse
       style="opacity:0.98000004;fill:#91ac39;fill-opacity:1;fill-rule:evenodd;stroke-width:1.35108995;stroke-linejoin:round"
       id="path895-8-7"
       cx="61.801361"
       cy="96.348755"
       rx="6.3016272"
       ry="6.0765696" />
    <ellipse
       style="opacity:0.98000004;fill:#95c941;fill-opacity:1;fill-rule:evenodd;stroke-width:1.55761003;stroke-linejoin:round"
       id="path895-8-70"
       cx="69.688568"
       cy="80.558708"
       rx="7.2648535"
       ry="7.005394" />
    <ellipse
       style="opacity:0.98000004;fill:#a6ce39;fill-opacity:1;fill-rule:evenodd;stroke-width:1.64813006;stroke-linejoin:round"
       id="path895-8-4"
       cx="84.2006"
       cy="70.426071"
       rx="7.5974512"
       ry="7.4999642" />
    <ellipse
       style="opacity:0.98000004;fill:#b2d45c;fill-opacity:1;fill-rule:evenodd;stroke-width:1.53816998;stroke-linejoin:round"
       id="path895-8-2"
       cx="99.654907"
       cy="61.897778"
       rx="7.1710329"
       ry="6.9209561" />
    <ellipse
       style="opacity:0.98000004;fill:#c2d45a;fill-opacity:1;fill-rule:evenodd;stroke-width:1.17376006;stroke-linejoin:round"
       id="path895-8-2-9"
       cx="111.2973"
       cy="52.911938"
       rx="5.472115"
       ry="5.2812848" />
    <ellipse
       style="opacity:0.98000004;fill:#bad971;fill-opacity:1;fill-rule:evenodd;stroke-width:0.84381801;stroke-linejoin:round"
       id="path895-8-2-96"
       cx="121.41163"
       cy="43.490147"
       rx="3.9339128"
       ry="3.7967243" />
  </g>
  <g
     aria-label="SBIO.INFO"
     style="font-size:49.7159996px;line-height:1.25;font-family:Montserrat;-inkscape-font-specification:Montserrat;fill:#1a1a1a;fill-opacity:0.98039198;stroke-width:1.24290001"
     id="text847"
     transform="matrix(1.0066674,0,0,1,0.82639323,5.0610339e-8)">
    <path
       d="m 132.80316,72.807842 q -8.84945,0 -14.01991,-5.269896 l 3.82813,-5.369328 q 4.27558,4.47444 10.53979,4.47444 2.73438,0 4.22586,-1.044036 1.5412,-1.093752 1.5412,-2.634948 0,-1.342332 -1.44177,-2.23722 -1.39204,-0.894888 -3.52983,-1.292616 -2.08807,-0.397728 -4.57387,-1.143468 -2.4858,-0.74574 -4.62359,-1.690344 -2.08807,-0.944604 -3.52984,-2.98296 -1.39205,-2.038356 -1.39205,-4.9716 0,-4.275575 3.43041,-7.159103 3.4304,-2.933244 9.14774,-2.933244 7.90485,0 12.92616,4.623588 l -3.92756,5.170463 q -3.92757,-3.629267 -9.64491,-3.629267 -2.23722,0 -3.48012,0.894888 -1.2429,0.894888 -1.2429,2.436083 0,1.193184 1.39205,2.038356 1.44177,0.795456 3.52984,1.193184 2.13779,0.397728 4.57387,1.193184 2.4858,0.74574 4.57387,1.74006 2.13779,0.944604 3.52984,3.032676 1.44176,2.038356 1.44176,4.921884 0,4.772736 -3.4304,7.70598 -3.38069,2.933244 -9.84377,2.933244 z"
       style="font-style:normal;font-variant:normal;font-weight:bold;font-stretch:normal;font-family:'Proxima Nova';-inkscape-font-specification:'Proxima Nova Bold';fill:#1a1a1a;fill-opacity:0.98039198;stroke-width:1.24290001"
       id="path30"
       inkscape:connector-curvature="0" />
    <path
       d="M 168.82784,72.21125 H 150.83065 V 39.050679 h 17.45031 q 4.52416,0 7.00996,2.4858 2.53551,2.436084 2.53551,5.96592 0,3.032675 -1.64062,5.071031 -1.64063,2.038356 -4.07672,2.535516 2.68467,0.397728 4.52416,2.73438 1.83949,2.336652 1.83949,5.419044 0,3.877848 -2.53551,6.413364 -2.53552,2.535516 -7.10939,2.535516 z m -2.08807,-19.8864 q 1.78977,0 2.83381,-0.99432 1.04403,-0.99432 1.04403,-2.585232 0,-1.590911 -1.09375,-2.585231 -1.04403,-1.044036 -2.78409,-1.044036 h -8.84945 v 7.208819 z m 0.24858,13.771332 q 1.98864,0 3.1321,-0.99432 1.14347,-1.044036 1.14347,-2.833812 0,-1.640628 -1.14347,-2.73438 -1.14346,-1.143468 -3.1321,-1.143468 h -9.09803 v 7.70598 z"
       style="font-style:normal;font-variant:normal;font-weight:bold;font-stretch:normal;font-family:'Proxima Nova';-inkscape-font-specification:'Proxima Nova Bold';fill:#1a1a1a;fill-opacity:0.98039198;stroke-width:1.24290001"
       id="path32"
       inkscape:connector-curvature="0" />
    <path
       d="m 190.80775,72.21125 h -7.05967 V 39.050679 h 7.05967 z"
       style="font-style:normal;font-variant:normal;font-weight:bold;font-stretch:normal;font-family:'Proxima Nova';-inkscape-font-specification:'Proxima Nova Bold';fill:#1a1a1a;fill-opacity:0.98039198;stroke-width:1.24290001"
       id="path34"
       inkscape:connector-curvature="0" />
    <path
       d="m 213.05255,72.807842 q -7.50711,0 -12.429,-4.822452 -4.87216,-4.872168 -4.87216,-12.329568 0,-7.4574 4.87216,-12.279851 4.92189,-4.872168 12.429,-4.872168 7.55684,0 12.429,4.822452 4.92189,4.822451 4.92189,12.329567 0,7.507116 -4.92189,12.329568 -4.87216,4.822452 -12.429,4.822452 z m -7.30825,-9.346608 q 2.7841,3.082392 7.30825,3.082392 4.52416,0 7.30826,-3.082392 2.78409,-3.082392 2.78409,-7.805412 0,-4.72302 -2.78409,-7.805412 -2.7841,-3.082391 -7.30826,-3.082391 -4.52415,0 -7.30825,3.082391 -2.73438,3.082392 -2.73438,7.805412 0,4.72302 2.73438,7.805412 z"
       style="font-style:normal;font-variant:normal;font-weight:bold;font-stretch:normal;font-family:'Proxima Nova';-inkscape-font-specification:'Proxima Nova Bold';fill:#1a1a1a;fill-opacity:0.98039198;stroke-width:1.24290001"
       id="path36"
       inkscape:connector-curvature="0" />
    <path
       d="m 240.15709,71.564942 q -1.19318,1.193184 -2.83381,1.193184 -1.64063,0 -2.83381,-1.193184 -1.19319,-1.193184 -1.19319,-2.833812 0,-1.640628 1.19319,-2.833812 1.19318,-1.193184 2.83381,-1.193184 1.64063,0 2.83381,1.193184 1.19319,1.193184 1.19319,2.833812 0,1.640628 -1.19319,2.833812 z"
       style="font-style:normal;font-variant:normal;font-weight:bold;font-stretch:normal;font-family:'Proxima Nova';-inkscape-font-specification:'Proxima Nova Bold';fill:#1a1a1a;fill-opacity:0.98039198;stroke-width:1.24290001"
       id="path38"
       inkscape:connector-curvature="0" />
    <path
       d="M 254.02087,72.21125 H 246.9612 V 39.050679 h 7.05967 z"
       style="font-style:normal;font-variant:normal;font-weight:bold;font-stretch:normal;font-family:'Proxima Nova';-inkscape-font-specification:'Proxima Nova Bold';fill:#1a1a1a;fill-opacity:0.98039198;stroke-width:1.24290001"
       id="path40"
       inkscape:connector-curvature="0" />
    <path
       d="m 290.23586,72.21125 h -6.81109 L 267.61508,50.58479 v 21.62646 h -7.05967 V 39.050679 h 7.25854 l 15.36224,20.831003 V 39.050679 h 7.05967 z"
       style="font-style:normal;font-variant:normal;font-weight:bold;font-stretch:normal;font-family:'Proxima Nova';-inkscape-font-specification:'Proxima Nova Bold';fill:#1a1a1a;fill-opacity:0.98039198;stroke-width:1.24290001"
       id="path42"
       inkscape:connector-curvature="0" />
    <path
       d="M 303.83397,72.21125 H 296.7743 V 39.050679 h 23.46595 v 6.2145 h -16.40628 v 7.009955 h 16.05827 v 6.2145 h -16.05827 z"
       style="font-style:normal;font-variant:normal;font-weight:bold;font-stretch:normal;font-family:'Proxima Nova';-inkscape-font-specification:'Proxima Nova Bold';fill:#1a1a1a;fill-opacity:0.98039198;stroke-width:1.24290001"
       id="path44"
       inkscape:connector-curvature="0" />
    <path
       d="m 340.83821,72.807842 q -7.50712,0 -12.429,-4.822452 -4.87217,-4.872168 -4.87217,-12.329568 0,-7.4574 4.87217,-12.279851 4.92188,-4.872168 12.429,-4.872168 7.55683,0 12.429,4.822452 4.92188,4.822451 4.92188,12.329567 0,7.507116 -4.92188,12.329568 -4.87217,4.822452 -12.429,4.822452 z m -7.30826,-9.346608 q 2.7841,3.082392 7.30826,3.082392 4.52415,0 7.30825,-3.082392 2.78409,-3.082392 2.78409,-7.805412 0,-4.72302 -2.78409,-7.805412 -2.7841,-3.082391 -7.30825,-3.082391 -4.52416,0 -7.30826,3.082391 -2.73438,3.082392 -2.73438,7.805412 0,4.72302 2.73438,7.805412 z"
       style="font-style:normal;font-variant:normal;font-weight:bold;font-stretch:normal;font-family:'Proxima Nova';-inkscape-font-specification:'Proxima Nova Bold';fill:#1a1a1a;fill-opacity:0.98039198;stroke-width:1.24290001"
       id="path46"
       inkscape:connector-curvature="0" />
  </g>
  <g
     aria-label="Проект &quot;Вся Биология&quot;"
     transform="matrix(1.0855059,0,0,1.0855059,-12.083957,-7.7337051)"
     style="font-size:21.16670036px;line-height:1.25;font-family:Montserrat;-inkscape-font-specification:Montserrat;white-space:pre;fill:#517830;fill-opacity:0.98039198;stroke-width:0.26458299"
     id="text851">
    <path
       d="M 134.83874,99.829613 H 133.0819 V 87.277759 h -8.25501 v 12.551854 h -1.75684 V 85.711424 h 11.76869 z"
       style="font-style:normal;font-variant:normal;font-weight:normal;font-stretch:normal;font-size:21.16670036px;font-family:'Proxima Nova';-inkscape-font-specification:'Proxima Nova';fill:#517830;fill-opacity:0.98039198;stroke-width:0.26458299"
       id="path49"
       inkscape:connector-curvature="0" />
    <path
       d="m 143.13377,100.08361 q -2.159,0 -3.45017,-1.799166 v 5.439846 h -1.5875 V 89.606096 h 1.5875 v 1.524003 q 0.5715,-0.804335 1.48167,-1.291169 0.91017,-0.486834 1.9685,-0.486834 2.032,0 3.28084,1.460502 1.27,1.439336 1.27,3.894673 0,2.455337 -1.27,3.91584 -1.24884,1.460499 -3.28084,1.460499 z m -0.40217,-1.418166 q 1.50284,0 2.39184,-1.100668 0.889,-1.121835 0.889,-2.857505 0,-1.735669 -0.889,-2.836338 -0.889,-1.100668 -2.39184,-1.100668 -0.91016,0 -1.778,0.486834 -0.84667,0.465667 -1.27,1.143002 v 4.614341 q 0.42333,0.698501 1.27,1.185335 0.86784,0.465667 1.778,0.465667 z"
       style="font-style:normal;font-variant:normal;font-weight:normal;font-stretch:normal;font-size:21.16670036px;font-family:'Proxima Nova';-inkscape-font-specification:'Proxima Nova';fill:#517830;fill-opacity:0.98039198;stroke-width:0.26458299"
       id="path51"
       inkscape:connector-curvature="0" />
    <path
       d="m 158.33709,98.538444 q -1.37584,1.545166 -3.66184,1.545166 -2.28601,0 -3.68301,-1.545166 -1.37583,-1.545169 -1.37583,-3.831173 0,-2.286003 1.37583,-3.810006 1.397,-1.545169 3.68301,-1.545169 2.286,0 3.66184,1.545169 1.397,1.524003 1.397,3.810006 0,2.286004 -1.397,3.831173 z m -6.15951,-1.016002 q 0.93133,1.143002 2.49767,1.143002 1.56633,0 2.4765,-1.143002 0.91017,-1.164168 0.91017,-2.815171 0,-1.651002 -0.91017,-2.794004 -0.91017,-1.143002 -2.4765,-1.143002 -1.56634,0 -2.49767,1.164168 -0.91017,1.143002 -0.91017,2.772838 0,1.651003 0.91017,2.815171 z"
       style="font-style:normal;font-variant:normal;font-weight:normal;font-stretch:normal;font-size:21.16670036px;font-family:'Proxima Nova';-inkscape-font-specification:'Proxima Nova';fill:#517830;fill-opacity:0.98039198;stroke-width:0.26458299"
       id="path53"
       inkscape:connector-curvature="0" />
    <path
       d="m 166.93639,100.08361 q -2.28601,0 -3.74651,-1.481666 -1.4605,-1.502836 -1.4605,-3.894673 0,-2.24367 1.43933,-3.788839 1.43934,-1.566336 3.59834,-1.566336 2.26484,0 3.57717,1.566336 1.33351,1.545169 1.33351,3.915839 v 0.402168 h -8.27618 q 0.10583,1.502835 1.10067,2.518837 0.99483,1.016002 2.58233,1.016002 1.90501,0 3.15384,-1.291169 l 0.762,1.037168 q -1.56633,1.566333 -4.064,1.566333 z m 3.175,-6.01134 q -0.0212,-1.312335 -0.889,-2.349504 -0.86784,-1.058335 -2.4765,-1.058335 -1.52401,0 -2.41301,1.037169 -0.86783,1.037168 -0.93133,2.37067 z"
       style="font-style:normal;font-variant:normal;font-weight:normal;font-stretch:normal;font-size:21.16670036px;font-family:'Proxima Nova';-inkscape-font-specification:'Proxima Nova';fill:#517830;fill-opacity:0.98039198;stroke-width:0.26458299"
       id="path55"
       inkscape:connector-curvature="0" />
    <path
       d="m 183.22417,99.829613 h -2.03201 l -3.683,-4.593174 -1.69334,1.672169 v 2.921005 h -1.5875 V 89.606096 h 1.5875 v 5.439842 l 5.37634,-5.439842 h 2.01084 l -4.52967,4.635508 z"
       style="font-style:normal;font-variant:normal;font-weight:normal;font-stretch:normal;font-size:21.16670036px;font-family:'Proxima Nova';-inkscape-font-specification:'Proxima Nova';fill:#517830;fill-opacity:0.98039198;stroke-width:0.26458299"
       id="path57"
       inkscape:connector-curvature="0" />
    <path
       d="m 188.55123,99.829613 h -1.5875 v -8.826514 h -2.96334 v -1.397003 h 7.53534 v 1.397003 h -2.9845 z"
       style="font-style:normal;font-variant:normal;font-weight:normal;font-stretch:normal;font-size:21.16670036px;font-family:'Proxima Nova';-inkscape-font-specification:'Proxima Nova';fill:#517830;fill-opacity:0.98039198;stroke-width:0.26458299"
       id="path59"
       inkscape:connector-curvature="0" />
    <path
       d="m 199.98456,91.108932 h -0.78317 q -0.5715,-4.339173 -0.5715,-4.635507 0,-0.402168 0.27516,-0.677335 0.27517,-0.296333 0.67734,-0.296333 0.40217,0 0.67733,0.296333 0.29634,0.275167 0.29634,0.677335 z m 3.06917,0 h -0.78317 q -0.5715,-4.339173 -0.5715,-4.635507 0,-0.402168 0.27517,-0.677335 0.29633,-0.296333 0.6985,-0.296333 0.40216,0 0.67733,0.296333 0.27517,0.275167 0.27517,0.677335 z"
       style="font-style:normal;font-variant:normal;font-weight:normal;font-stretch:normal;font-size:21.16670036px;font-family:'Proxima Nova';-inkscape-font-specification:'Proxima Nova';fill:#517830;fill-opacity:0.98039198;stroke-width:0.26458299"
       id="path61"
       inkscape:connector-curvature="0" />
    <path
       d="m 212.84862,99.829613 h -6.43468 V 85.711424 h 6.28651 q 1.82034,0 2.87867,0.994835 1.07951,0.994834 1.07951,2.603504 0,1.270002 -0.71967,2.159003 -0.71967,0.867835 -1.75684,1.079502 1.12184,0.169333 1.92617,1.185335 0.8255,1.016002 0.8255,2.286004 0,1.714502 -1.10067,2.772837 -1.0795,1.037169 -2.9845,1.037169 z m -0.4445,-8.001013 q 1.16417,0 1.79917,-0.635001 0.635,-0.635001 0.635,-1.629836 0,-0.994835 -0.65617,-1.629836 -0.635,-0.656168 -1.778,-0.656168 h -4.23334 V 91.8286 Z m 0.0847,6.434677 q 1.22766,0 1.92616,-0.656168 0.69851,-0.656168 0.69851,-1.778003 0,-1.037168 -0.69851,-1.735669 -0.67733,-0.698501 -1.92616,-0.698501 h -4.31801 v 4.868341 z"
       style="font-style:normal;font-variant:normal;font-weight:normal;font-stretch:normal;font-size:21.16670036px;font-family:'Proxima Nova';-inkscape-font-specification:'Proxima Nova';fill:#517830;fill-opacity:0.98039198;stroke-width:0.26458299"
       id="path63"
       inkscape:connector-curvature="0" />
    <path
       d="m 224.17082,100.08361 q -2.26484,0 -3.68301,-1.523999 -1.41817,-1.545169 -1.41817,-3.85234 0,-2.30717 1.41817,-3.831173 1.41817,-1.524002 3.68301,-1.524002 2.37067,0 3.7465,1.778003 l -1.05833,0.973668 q -0.97367,-1.333502 -2.60351,-1.333502 -1.60867,0 -2.58233,1.100668 -0.95251,1.100669 -0.95251,2.836338 0,1.73567 0.95251,2.857505 0.97366,1.100668 2.58233,1.100668 1.60867,0 2.60351,-1.333502 l 1.05833,0.973668 q -1.37583,1.778 -3.7465,1.778 z"
       style="font-style:normal;font-variant:normal;font-weight:normal;font-stretch:normal;font-size:21.16670036px;font-family:'Proxima Nova';-inkscape-font-specification:'Proxima Nova';fill:#517830;fill-opacity:0.98039198;stroke-width:0.26458299"
       id="path65"
       inkscape:connector-curvature="0" />
    <path
       d="m 231.64564,99.829613 h -1.86267 l 2.7305,-4.021673 q -1.16416,-0.148167 -1.905,-0.973669 -0.71967,-0.825501 -0.71967,-2.095503 0,-1.354669 0.86784,-2.24367 0.86783,-0.889002 2.37067,-0.889002 h 5.39751 v 10.223517 h -1.58751 V 95.87144 h -2.794 z m 1.651,-5.355175 h 3.64067 v -3.471339 h -3.64067 q -0.8255,0 -1.31233,0.486834 -0.46567,0.465667 -0.46567,1.248835 0,0.783168 0.46567,1.270002 0.46566,0.465668 1.31233,0.465668 z"
       style="font-style:normal;font-variant:normal;font-weight:normal;font-stretch:normal;font-size:21.16670036px;font-family:'Proxima Nova';-inkscape-font-specification:'Proxima Nova';fill:#517830;fill-opacity:0.98039198;stroke-width:0.26458299"
       id="path67"
       inkscape:connector-curvature="0" />
    <path
       d="m 247.21771,85.711424 h 9.16519 v 1.566335 h -7.40835 v 4.04284 h 3.91584 q 2.032,0 3.21734,1.227669 1.2065,1.227668 1.2065,3.026838 0,1.799169 -1.18534,3.026838 -1.18533,1.227669 -3.2385,1.227669 h -5.67268 z m 5.46101,7.175511 h -3.70417 v 5.376342 h 3.70417 q 1.24884,0 2.03201,-0.740835 0.78316,-0.762001 0.78316,-1.947336 0,-1.185335 -0.78316,-1.92617 -0.78317,-0.762001 -2.03201,-0.762001 z"
       style="font-style:normal;font-variant:normal;font-weight:normal;font-stretch:normal;font-size:21.16670036px;font-family:'Proxima Nova';-inkscape-font-specification:'Proxima Nova';fill:#517830;fill-opacity:0.98039198;stroke-width:0.26458299"
       id="path69"
       inkscape:connector-curvature="0" />
    <path
       d="m 261.12193,99.829613 h -1.52401 V 89.606096 h 1.58751 v 7.810513 l 5.35517,-7.810513 h 1.56634 v 10.223517 h -1.5875 v -7.95868 z"
       style="font-style:normal;font-variant:normal;font-weight:normal;font-stretch:normal;font-size:21.16670036px;font-family:'Proxima Nova';-inkscape-font-specification:'Proxima Nova';fill:#517830;fill-opacity:0.98039198;stroke-width:0.26458299"
       id="path71"
       inkscape:connector-curvature="0" />
    <path
       d="m 279.42549,98.538444 q -1.37583,1.545166 -3.66184,1.545166 -2.286,0 -3.683,-1.545166 -1.37584,-1.545169 -1.37584,-3.831173 0,-2.286003 1.37584,-3.810006 1.397,-1.545169 3.683,-1.545169 2.28601,0 3.66184,1.545169 1.397,1.524003 1.397,3.810006 0,2.286004 -1.397,3.831173 z m -6.15951,-1.016002 q 0.93134,1.143002 2.49767,1.143002 1.56634,0 2.47651,-1.143002 0.91016,-1.164168 0.91016,-2.815171 0,-1.651002 -0.91016,-2.794004 -0.91017,-1.143002 -2.47651,-1.143002 -1.56633,0 -2.49767,1.164168 -0.91017,1.143002 -0.91017,2.772838 0,1.651003 0.91017,2.815171 z"
       style="font-style:normal;font-variant:normal;font-weight:normal;font-stretch:normal;font-size:21.16670036px;font-family:'Proxima Nova';-inkscape-font-specification:'Proxima Nova';fill:#517830;fill-opacity:0.98039198;stroke-width:0.26458299"
       id="path73"
       inkscape:connector-curvature="0" />
    <path
       d="m 282.20395,100.08361 v -1.312332 q 0.71967,0 1.18534,-0.952502 0.46567,-0.952501 0.762,-3.175005 l 0.65617,-5.037675 h 7.11201 v 10.223517 h -1.5875 v -8.826514 h -4.12751 l -0.46567,3.831172 q -0.33867,2.815172 -1.18533,4.04284 -0.84667,1.206499 -2.34951,1.206499 z"
       style="font-style:normal;font-variant:normal;font-weight:normal;font-stretch:normal;font-size:21.16670036px;font-family:'Proxima Nova';-inkscape-font-specification:'Proxima Nova';fill:#517830;fill-opacity:0.98039198;stroke-width:0.26458299"
       id="path75"
       inkscape:connector-curvature="0" />
    <path
       d="m 303.23804,98.538444 q -1.37584,1.545166 -3.66184,1.545166 -2.28601,0 -3.68301,-1.545166 -1.37583,-1.545169 -1.37583,-3.831173 0,-2.286003 1.37583,-3.810006 1.397,-1.545169 3.68301,-1.545169 2.286,0 3.66184,1.545169 1.397,1.524003 1.397,3.810006 0,2.286004 -1.397,3.831173 z m -6.15951,-1.016002 q 0.93133,1.143002 2.49767,1.143002 1.56633,0 2.4765,-1.143002 0.91017,-1.164168 0.91017,-2.815171 0,-1.651002 -0.91017,-2.794004 -0.91017,-1.143002 -2.4765,-1.143002 -1.56634,0 -2.49767,1.164168 -0.91017,1.143002 -0.91017,2.772838 0,1.651003 0.91017,2.815171 z"
       style="font-style:normal;font-variant:normal;font-weight:normal;font-stretch:normal;font-size:21.16670036px;font-family:'Proxima Nova';-inkscape-font-specification:'Proxima Nova';fill:#517830;fill-opacity:0.98039198;stroke-width:0.26458299"
       id="path77"
       inkscape:connector-curvature="0" />
    <path
       d="m 314.37735,89.606096 v 1.397003 h -5.56685 v 8.826514 H 307.223 V 89.606096 Z"
       style="font-style:normal;font-variant:normal;font-weight:normal;font-stretch:normal;font-size:21.16670036px;font-family:'Proxima Nova';-inkscape-font-specification:'Proxima Nova';fill:#517830;fill-opacity:0.98039198;stroke-width:0.26458299"
       id="path79"
       inkscape:connector-curvature="0" />
    <path
       d="m 317.96609,99.829613 h -1.524 V 89.606096 h 1.5875 v 7.810513 l 5.35517,-7.810513 h 1.56634 v 10.223517 h -1.5875 v -7.95868 z"
       style="font-style:normal;font-variant:normal;font-weight:normal;font-stretch:normal;font-size:21.16670036px;font-family:'Proxima Nova';-inkscape-font-specification:'Proxima Nova';fill:#517830;fill-opacity:0.98039198;stroke-width:0.26458299"
       id="path81"
       inkscape:connector-curvature="0" />
    <path
       d="m 329.66566,99.829613 h -1.86267 l 2.7305,-4.021673 q -1.16417,-0.148167 -1.905,-0.973669 -0.71967,-0.825501 -0.71967,-2.095503 0,-1.354669 0.86784,-2.24367 0.86783,-0.889002 2.37067,-0.889002 h 5.39751 v 10.223517 h -1.58751 V 95.87144 h -2.794 z m 1.651,-5.355175 h 3.64067 v -3.471339 h -3.64067 q -0.8255,0 -1.31233,0.486834 -0.46567,0.465667 -0.46567,1.248835 0,0.783168 0.46567,1.270002 0.46566,0.465668 1.31233,0.465668 z"
       style="font-style:normal;font-variant:normal;font-weight:normal;font-stretch:normal;font-size:21.16670036px;font-family:'Proxima Nova';-inkscape-font-specification:'Proxima Nova';fill:#517830;fill-opacity:0.98039198;stroke-width:0.26458299"
       id="path83"
       inkscape:connector-curvature="0" />
    <path
       d="m 340.62736,91.108932 h -0.78317 q -0.5715,-4.339173 -0.5715,-4.635507 0,-0.402168 0.27516,-0.677335 0.27517,-0.296333 0.67734,-0.296333 0.40217,0 0.67733,0.296333 0.29634,0.275167 0.29634,0.677335 z m 3.06917,0 h -0.78317 q -0.5715,-4.339173 -0.5715,-4.635507 0,-0.402168 0.27516,-0.677335 0.29634,-0.296333 0.69851,-0.296333 0.40216,0 0.67733,0.296333 0.27517,0.275167 0.27517,0.677335 z"
       style="font-style:normal;font-variant:normal;font-weight:normal;font-stretch:normal;font-size:21.16670036px;font-family:'Proxima Nova';-inkscape-font-specification:'Proxima Nova';fill:#517830;fill-opacity:0.98039198;stroke-width:0.26458299"
       id="path85"
       inkscape:connector-curvature="0" />
  </g>
  <text
     xml:space="preserve"
     id="text853"
     style="font-size:10.58329964px;line-height:1.25;font-family:Montserrat;-inkscape-font-specification:Montserrat;white-space:pre;shape-inside:url(#rect855)"
     y="5.0610339e-08" />
</svg>
