<?xml version="1.0" encoding="UTF-8" standalone="no"?>
<svg
   xmlns:osb="http://www.openswatchbook.org/uri/2009/osb"
   xmlns:dc="http://purl.org/dc/elements/1.1/"
   xmlns:cc="http://creativecommons.org/ns#"
   xmlns:rdf="http://www.w3.org/1999/02/22-rdf-syntax-ns#"
   xmlns:svg="http://www.w3.org/2000/svg"
   xmlns="http://www.w3.org/2000/svg"
   xmlns:xlink="http://www.w3.org/1999/xlink"
   xmlns:sodipodi="http://sodipodi.sourceforge.net/DTD/sodipodi-0.dtd"
   xmlns:inkscape="http://www.inkscape.org/namespaces/inkscape"
   width="140mm"
   height="140mm"
   viewBox="0 0 140 140"
   version="1.1"
   id="svg8"
   inkscape:version="1.0.2-2 (e86c870879, 2021-01-15)"
   sodipodi:docname="seditio_icon.svg">
  <defs
     id="defs2">
    <linearGradient
       id="linearGradient3090"
       osb:paint="solid">
      <stop
         style="stop-color:#1a5fb4;stop-opacity:1;"
         offset="0"
         id="stop3088" />
    </linearGradient>
    <linearGradient
       id="linearGradient3015"
       osb:paint="solid">
      <stop
         style="stop-color:#1a5fb4;stop-opacity:1;"
         offset="0"
         id="stop3013" />
    </linearGradient>
    <linearGradient
       inkscape:collect="always"
       id="linearGradient1162-1-9-9-9-7">
      <stop
         style="stop-color:#1e4d2d;stop-opacity:1"
         offset="0"
         id="stop1191" />
      <stop
         style="stop-color:#a7ce3a;stop-opacity:1"
         offset="1"
         id="stop1193" />
    </linearGradient>
    <linearGradient
       inkscape:collect="always"
       xlink:href="#linearGradient1162-1-9-9-9-7"
       id="linearGradient1201"
       gradientUnits="userSpaceOnUse"
       x1="184.02997"
       y1="35.881203"
       x2="3.0287659"
       y2="285.21378"
       gradientTransform="matrix(0.5335886,0,0,0.5335886,32.610595,6.5904401)" />
    <rect
       x="126.03262"
       y="97.675278"
       width="236.31116"
       height="14.17867"
       id="rect855" />
  </defs>
  <sodipodi:namedview
     id="base"
     pagecolor="#ffffff"
     bordercolor="#666666"
     borderopacity="1.0"
     inkscape:pageopacity="0.0"
     inkscape:pageshadow="2"
     inkscape:zoom="0.34074713"
     inkscape:cx="712.43943"
     inkscape:cy="965.64894"
     inkscape:document-units="mm"
     inkscape:current-layer="g899"
     inkscape:document-rotation="0"
     showgrid="false"
     inkscape:window-width="1920"
     inkscape:window-height="1017"
     inkscape:window-x="-8"
     inkscape:window-y="-8"
     inkscape:window-maximized="1" />
  <metadata
     id="metadata5">
    <rdf:RDF>
      <cc:Work
         rdf:about="">
        <dc:format>image/svg+xml</dc:format>
        <dc:type
           rdf:resource="http://purl.org/dc/dcmitype/StillImage" />
        <dc:title></dc:title>
      </cc:Work>
    </rdf:RDF>
  </metadata>
  <g
     inkscape:label="Слой 1"
     inkscape:groupmode="layer"
     id="layer1"
     transform="translate(61.679528,355.80154)">
    <g
       id="g899"
       transform="translate(-371.93393,-68.330241)">
      <g
         id="g3262"
         transform="matrix(0.99928051,0,0,0.97009785,0.2232263,-8.5960103)">
        <g
           aria-label="S"
           transform="matrix(0.72633393,0.74348823,-0.6882011,0.67232242,0,0)"
           id="text969"
           style="font-size:67.1975px;line-height:1.25;font-family:Montserrat;-inkscape-font-specification:Montserrat;fill:#ffffff;stroke-width:1.67994">
          <g
             id="g3295">
            <path
               style="fill:#9e9e9e;fill-opacity:1;stroke-width:0.125227"
               d="m 434.71127,-266.14977 c -0.76187,-0.38535 -1.28373,-1.15533 -1.29963,-1.91745 -0.0109,-0.52497 0.035,-0.625 0.45162,-0.98526 0.25506,-0.22053 1.2223,-0.72537 2.14935,-1.12186 3.68931,-1.57789 5.2326,-2.9937 4.84251,-4.44249 -0.19699,-0.73149 -0.69694,-1.24723 -2.38287,-2.45823 -3.23836,-2.32612 -4.75543,-4.75344 -4.13872,-6.62208 0.35228,-1.06741 2.70718,-2.5932 5.02781,-3.25764 2.22346,-0.63662 4.89968,-0.68807 7.07208,-0.13594 1.11225,0.28267 2.46097,0.99197 3.23992,1.70389 1.03686,0.94762 0.91754,1.41069 -0.53932,2.09373 -0.70706,0.33148 -0.70839,0.3316 -3.90056,0.3316 -2.31665,0 -3.26798,0.0427 -3.46535,0.15574 -0.45555,0.26079 -0.7924,0.78998 -0.7924,1.24486 0,0.5742 0.24271,1.0092 1.31109,2.34998 1.87247,2.34986 2.60655,3.76216 2.67191,5.14054 0.036,0.76255 -0.005,0.96619 -0.31143,1.56534 -0.444,0.8662 -0.90759,1.13565 -2.66708,1.55017 -1.55631,0.36663 -2.0837,0.57448 -2.63514,1.03847 -0.57923,0.48742 -0.86784,1.2 -0.87111,2.15105 0,0.71489 -0.0393,0.82939 -0.36756,1.13581 -0.79264,0.74045 -2.42396,0.97097 -3.39512,0.47977 z"
               id="path989"
               transform="matrix(0.67232243,-0.74348824,0.68820111,0.72633394,6.2088324e-6,-5.1927375e-6)" />
            <path
               style="fill:#62a0ea;fill-opacity:1;stroke-width:0.125227"
               d="m 407.95454,-259.42296 c -1.88023,-0.93697 -1.9764,-3.25696 -0.2056,-4.96123 2.08838,-2.00994 5.37052,-1.92906 6.43559,0.15859 0.76281,1.49531 -0.38191,3.69319 -2.44577,4.69575 -0.79619,0.38676 -0.9732,0.4241 -2.01034,0.4241 -0.9661,0 -1.23318,-0.0478 -1.77388,-0.31721 z"
               id="path987"
               transform="matrix(0.67232243,-0.74348824,0.68820111,0.72633394,6.2088324e-6,-5.1927375e-6)" />
            <path
               style="fill:#62a0ea;fill-opacity:1;stroke-width:0.125227"
               d="m 431.58371,-246.06858 c -3.29918,-0.70768 -3.09859,-4.63702 0.32071,-6.28186 0.78416,-0.37721 0.97892,-0.41831 1.99599,-0.42121 1.54537,-0.004 2.19801,0.32579 2.95017,1.49259 0.40311,0.62537 0.33638,1.79355 -0.15515,2.71575 -0.46894,0.87989 -1.39623,1.72093 -2.37411,2.15341 -0.74412,0.32909 -2.04091,0.49077 -2.73761,0.34132 z"
               id="path985"
               transform="matrix(0.67232243,-0.74348824,0.68820111,0.72633394,6.2088324e-6,-5.1927375e-6)" />
            <path
               style="fill:#c0bfbc;fill-opacity:1;stroke-width:0.125227"
               d="m 420.39705,-232.1183 c -1.26191,-2.45132 -3.61932,-5.60184 -5.87918,-7.85716 -3.69665,-3.68921 -9.44596,-7.40817 -13.80263,-8.92832 -0.55101,-0.19225 -1.04481,-0.38624 -1.09734,-0.43107 -0.22051,-0.18818 1.21642,-4.40329 2.07631,-6.09088 0.61146,-1.19993 2.25116,-3.80525 2.3949,-3.80525 0.0251,0 0.19192,0.24886 0.37016,0.55301 0.7073,1.20695 2.42547,2.22702 4.17658,2.47963 3.15653,0.45535 6.60205,-1.30326 7.9608,-4.06324 0.54623,-1.10957 0.70413,-1.76382 0.7081,-2.9342 0.005,-1.08889 -0.31015,-2.16645 -0.86656,-2.97521 -0.22373,-0.32517 -0.38725,-0.6098 -0.3634,-0.63251 0.10162,-0.0967 2.52126,-0.55997 3.65349,-0.69946 1.528,-0.18824 4.5653,-0.093 5.82418,0.18266 5.86886,1.28502 9.32745,5.11952 10.2182,11.3288 0.0705,0.49171 0.0559,0.53741 -0.14455,0.45148 -0.12263,-0.0526 -0.73016,-0.12096 -1.35004,-0.15193 -3.35346,-0.16758 -6.58245,1.92606 -7.65457,4.96307 -0.38541,1.09172 -0.40945,2.77893 -0.0543,3.81104 0.86003,2.4998 3.3138,3.9798 6.30013,3.79994 0.74554,-0.0449 1.22092,-0.0268 1.22092,0.0464 0,0.0659 -0.2473,0.62056 -0.5496,1.23247 -0.91867,1.85972 -2.69198,4.37339 -2.96583,4.20414 -0.0623,-0.0385 -0.0831,0.009 -0.0464,0.10455 0.069,0.17981 -1.02517,1.27514 -2.23946,2.24186 -1.81487,1.44477 -4.9297,3.21993 -6.74721,3.84525 l -0.67564,0.23246 z"
               id="path983"
               transform="matrix(0.67232243,-0.74348824,0.68820111,0.72633394,6.2088324e-6,-5.1927375e-6)" />
            <path
               style="fill:#c0bfbc;fill-opacity:1;stroke-width:0.125227"
               d="m 324.76503,-230.42986 c -3.28222,-0.31908 -5.04624,-1.63204 -5.04571,-3.75551 4.8e-4,-2.36027 1.78192,-5.43376 5.55237,-9.58007 5.30287,-5.83149 12.46913,-9.92538 20.46887,-11.69329 3.08199,-0.68111 4.55594,-0.82424 8.51544,-0.82689 2.34595,-0.001 4.25061,0.0587 5.0717,0.16062 6.16866,0.76537 13.377,2.76233 17.60909,4.87835 2.01858,1.00926 2.09099,1.07499 1.33996,1.21588 -2.35409,0.44164 -7.21374,2.27981 -10.12055,3.82812 -3.95301,2.10558 -8.61599,5.43052 -11.73762,8.36951 l -0.71765,0.67565 -0.72247,-0.13829 c -1.31985,-0.25263 -3.44759,-0.41037 -4.47095,-0.33144 -3.10696,0.23962 -7.61965,1.72948 -12.9067,4.26112 -0.96426,0.46172 -2.11947,1.00584 -2.56716,1.20915 -3.17702,1.44283 -6.8456,2.05985 -10.26862,1.72709 z"
               id="path981"
               transform="matrix(0.67232243,-0.74348824,0.68820111,0.72633394,6.2088324e-6,-5.1927375e-6)" />
            <path
               style="fill:#c0bfbc;fill-opacity:1;stroke-width:0.125227"
               d="m 317.69692,-183.29976 c -3.8305,-0.46041 -6.63742,-1.56669 -7.21776,-2.84471 -0.64592,-1.42244 0.0467,-3.08793 2.77718,-6.67789 3.15238,-4.14468 5.65524,-7.05979 6.83763,-7.96385 2.86281,-2.18896 4.66144,-3.31504 7.34077,-4.59587 4.12121,-1.9701 7.18878,-2.61771 10.72959,-2.26517 0.79206,0.0789 1.52556,0.16929 1.63,0.20098 0.16379,0.0497 0.1834,0.41658 0.14268,2.66958 -0.0722,3.99376 0.3053,7.67758 1.18258,11.54036 0.6753,2.97346 0.67846,2.67315 -0.0309,2.93837 -1.06856,0.39952 -3.42214,1.58024 -5.74196,2.88057 -2.59596,1.4551 -4.08503,2.16282 -5.94411,2.82506 -3.83959,1.36774 -7.61333,1.78445 -11.7057,1.29257 z"
               id="path979"
               transform="matrix(0.67232243,-0.74348824,0.68820111,0.72633394,6.2088324e-6,-5.1927375e-6)" />
            <path
               style="fill:#1a5fb4;fill-opacity:1;stroke-width:0.125227"
               d="m 360.97931,-175.08804 c -3.09891,-0.19728 -5.64379,-0.69571 -6.81963,-1.33569 -2.52096,-1.37208 -5.85189,-7.39733 -7.77144,-14.0576 -2.50636,-8.69633 -2.55915,-17.95063 -0.14394,-25.22967 1.27416,-3.84009 3.05845,-7.02444 6.17685,-11.02356 5.36747,-6.88336 11.4595,-12.11211 18.09937,-15.53456 4.25902,-2.19525 7.96983,-3.43676 12.4125,-4.15277 2.00149,-0.32259 7.69343,-0.31908 9.64247,0.006 7.13783,1.1903 13.57961,4.54195 18.78889,9.77588 4.47201,4.49315 7.09839,9.66332 8.0218,15.79119 0.27262,1.809 0.31365,6.12821 0.0756,7.95191 -0.47173,3.61431 -1.465,7.0815 -2.9983,10.4668 -5.05483,11.16006 -14.96145,19.26351 -29.1475,23.84211 -8.33158,2.68902 -18.28903,4.01233 -26.33665,3.50003 z"
               id="path977"
               transform="matrix(0.67232243,-0.74348824,0.68820111,0.72633394,6.2088324e-6,-5.1927375e-6)" />
            <path
               style="fill:#c0bfbc;fill-opacity:1;stroke-width:0.125227"
               d="m 416.54326,-166.97806 c -0.56554,-0.15996 -1.6122,-0.84224 -1.99742,-1.30204 -1.35008,-1.61143 -2.24712,-4.57627 -2.24712,-7.42701 0,-1.70969 0.22169,-2.865 1.07789,-5.61736 1.20956,-3.88832 1.79233,-6.55091 2.05326,-9.38089 l 0.13035,-1.41368 0.78388,-1.09086 c 3.30339,-4.59709 5.3283,-9.00359 6.66902,-14.51248 0.97499,-4.00625 1.10477,-5.02955 1.11263,-8.77478 0.005,-1.80791 0.0431,-3.28715 0.0872,-3.2872 0.29737,-3.8e-4 3.43851,3.67623 4.81444,5.63512 4.14359,5.89907 6.3832,11.09283 7.07393,16.40474 0.22207,1.70788 0.19074,5.27015 -0.0621,7.05687 -0.64345,4.54684 -2.37809,9.02887 -4.99908,12.91684 -2.60186,3.85956 -6.93818,8.17882 -9.84083,9.80208 -1.72262,0.96334 -3.45191,1.33127 -4.65608,0.99065 z"
               id="path975"
               transform="matrix(0.67232243,-0.74348824,0.68820111,0.72633394,6.2088324e-6,-5.1927375e-6)" />
            <path
               style="fill:#9a9996;fill-opacity:1;stroke-width:0.125227"
               d="m 339.07784,-163.06233 c -0.48461,-0.14942 -0.78829,-0.54885 -0.78829,-1.0368 0,-1.32383 2.05721,-5.55153 4.11572,-8.45808 0.45691,-0.64516 0.91336,-1.29321 1.01432,-1.44011 0.3388,-0.493 2.15373,-2.58381 2.24286,-2.58381 0.0485,0 0.33721,-0.22541 0.64164,-0.50091 0.30442,-0.2755 0.5927,-0.50091 0.64062,-0.50091 0.0479,0 0.49947,0.57755 1.00345,1.28344 1.8328,2.56711 3.63059,3.97337 5.87458,4.59521 0.49897,0.13828 0.92929,0.27347 0.95626,0.30043 0.14603,0.14604 -1.48394,1.87164 -2.90283,3.07316 -0.86023,0.72843 -2.97133,2.07287 -4.39451,2.79861 -3.6889,1.88113 -7.08038,2.87783 -8.40382,2.46977 z"
               id="path973"
               transform="matrix(0.67232243,-0.74348824,0.68820111,0.72633394,6.2088324e-6,-5.1927375e-6)" />
            <path
               style="fill:#c0bfbc;fill-opacity:1;stroke-width:0.125227"
               d="m 370.40356,-143.4542 c -1.31028,-0.65298 -2.75783,-2.43751 -3.91442,-4.82562 -1.6014,-3.30656 -2.1404,-6.16132 -1.78507,-9.45464 0.27613,-2.5594 0.53736,-3.49583 2.39291,-8.57805 0.55789,-1.52802 1.11516,-3.50748 1.11933,-3.97596 0,-0.25029 0.0657,-0.28176 0.5689,-0.28176 0.9644,0 5.40796,-0.48829 7.44812,-0.81845 2.64153,-0.42749 5.19034,-0.9645 8.12167,-1.71119 1.35302,-0.34465 2.60835,-0.65447 2.78967,-0.6885 0.30249,-0.0568 0.36312,0.009 0.73674,0.79547 1.0396,2.18927 1.44162,3.98644 1.33972,5.98919 -0.15226,2.99352 -1.20592,6.49516 -2.9896,9.93553 -0.96642,1.86402 -1.37644,2.49101 -2.55699,3.91009 -1.3889,1.66947 -7.44192,7.69954 -8.56823,8.53575 -1.92533,1.42938 -3.42905,1.80289 -4.70275,1.16814 z"
               id="path961"
               transform="matrix(0.67232243,-0.74348824,0.68820111,0.72633394,6.2088324e-6,-5.1927375e-6)" />
            <path
               d="m 129.07556,-428.62176 q 0,6.89037 -5.77478,11.45114 -5.44667,4.29828 -12.92764,4.29828 -6.82475,0 -11.516764,-3.28113 -5.216994,-3.67486 -5.216994,-9.97463 0,-4.42952 3.609241,-7.5794 3.642047,-3.1827 8.727797,-3.1827 4.95451,0 8.03877,1.90306 3.44518,2.13273 3.44518,6.03727 0,2.85458 -2.3296,4.75764 -2.29679,1.87024 -5.34824,1.87024 -2.78896,0 -4.69201,-1.04996 -2.26398,-1.24683 -2.26398,-3.54362 0,-1.37807 1.1484,-2.29679 0.8859,-0.72185 1.57494,-0.82028 0.68903,-0.0984 0.75466,-0.0984 0.26249,0 0.26249,0.19686 -0.0656,0.19687 -0.13125,0.39374 -0.0328,0.0656 -0.13124,0.39373 -0.19687,0.65623 -0.19687,1.4437 0,1.01715 1.01715,1.77181 1.04996,0.72185 2.26398,0.72185 2.0343,0 3.37956,-1.24683 1.34526,-1.24683 1.34526,-3.08426 0,-2.75615 -2.72334,-4.29828 -2.36241,-1.34526 -5.67635,-1.34526 -4.23265,0 -7.316912,2.49366 -3.248317,2.6249 -3.248317,6.56225 0,5.11856 4.888879,8.20282 4.3639,2.75615 10.40118,2.75615 6.13571,0 10.53242,-3.80611 4.56077,-3.93735 4.56077,-9.77776 0,-3.1827 -1.50932,-5.57792 -1.31245,-2.09992 -4.03579,-4.03579 -1.87024,-1.34526 -5.67635,-3.31394 -4.85607,-2.29679 -9.67933,-4.62639 -4.88888,-2.85458 -4.88888,-6.72631 0,-3.83892 3.90454,-5.97165 3.37956,-1.83743 8.23563,-1.83743 3.70768,0 5.87322,0.82028 2.98583,1.11558 2.98583,3.70767 0,1.04996 -0.85309,1.90306 -0.82029,0.82028 -1.47651,0.8859 -0.62342,0.0656 -0.91872,0.0656 -0.72185,0 -1.21401,-0.22967 -0.36093,-0.26249 -0.36093,-0.32812 0,-0.16405 0.22968,-0.39373 0.45936,-0.45936 0.65623,-0.95153 0.19686,-0.52498 0.19686,-1.08277 0,-1.60775 -1.77181,-2.42804 -1.41088,-0.65622 -3.54361,-0.65622 -3.44519,0 -5.74198,1.08277 -2.78896,1.31245 -2.78896,3.7733 0,1.80462 2.00149,3.31394 1.41089,1.04996 4.92169,2.59209 5.217,2.26398 6.07009,2.69052 4.39671,2.13274 6.6935,3.90455 3.08426,2.36241 4.56077,5.34823 1.67337,3.37957 1.67337,8.20282 z"
               style="font-style:normal;font-variant:normal;font-weight:normal;font-stretch:normal;font-family:Harrington;-inkscape-font-specification:Harrington;fill:#ffffff;stroke-width:1.67994"
               id="path3244" />
          </g>
        </g>
      </g>
    </g>
    <g
       id="g847"
       transform="translate(277.43452,26.458333)" />
  </g>
</svg>
