<?xml version="1.0" standalone="no"?>
<!DOCTYPE svg PUBLIC "-//W3C//DTD SVG 1.1//EN" "http://www.w3.org/Graphics/SVG/1.1/DTD/svg11.dtd" >
<svg xmlns="http://www.w3.org/2000/svg">
<metadata>Generated by IcoMoon</metadata>
<defs>
<font id="Seditio" horiz-adv-x="1024">
<font-face units-per-em="1024" ascent="960" descent="-64" />
<missing-glyph horiz-adv-x="1024" />
<glyph unicode="&#x20;" horiz-adv-x="512" d="" />
<glyph unicode="&#xe900;" glyph-name="instagram" d="M298.667 896c-70.699 0-134.741-28.715-181.035-74.965s-74.965-110.336-74.965-181.035v-426.667c0-70.699 28.715-134.741 74.965-181.035s110.336-74.965 181.035-74.965h426.667c70.699 0 134.741 28.715 181.035 74.965s74.965 110.336 74.965 181.035v426.667c0 70.699-28.715 134.741-74.965 181.035s-110.336 74.965-181.035 74.965zM298.667 810.667h426.667c47.147 0 89.728-19.072 120.661-50.005s50.005-73.515 50.005-120.661v-426.667c0-47.147-19.072-89.728-50.005-120.661s-73.515-50.005-120.661-50.005h-426.667c-47.147 0-89.728 19.072-120.661 50.005s-50.005 73.515-50.005 120.661v426.667c0 47.147 19.072 89.728 50.005 120.661s73.515 50.005 120.661 50.005zM724.864 459.819c-6.4 41.472-24.363 79.232-50.944 109.525-32.171 36.736-76.971 62.507-128.384 70.144-19.797 3.157-41.387 3.285-63.019 0.085-58.283-8.619-107.563-40.149-140.032-83.925s-48.341-100.139-39.68-158.379 40.149-107.563 83.925-140.032 100.139-48.341 158.379-39.68 107.563 40.149 140.032 83.925 48.341 100.139 39.68 158.379zM640.469 447.275c5.205-34.987-4.267-68.651-23.808-95.019s-49.067-45.184-84.011-50.347-68.651 4.267-95.019 23.808-45.184 49.067-50.347 84.011 4.267 68.651 23.808 95.019 49.067 45.184 84.011 50.347c13.355 1.963 26.24 1.792 37.12 0.085 31.573-4.693 58.283-20.053 77.568-42.069 16-18.261 26.88-41.088 30.72-65.835zM789.333 661.334c0 23.552-19.115 42.667-42.667 42.667s-42.667-19.115-42.667-42.667 19.115-42.667 42.667-42.667 42.667 19.115 42.667 42.667z" />
<glyph unicode="&#xe901;" glyph-name="document-file-gif" d="M672 544v96l-192 224h-351.912c-35.395 0-64.088-28.747-64.088-64.235v-735.531c0-35.476 28.51-64.235 63.918-64.235h480.165c35.301 0 63.918 28.743 63.918 63.705v64.295h255.781c53.14 0 96.219 42.952 96.219 95.961v224.078c0 52.998-42.752 95.961-96.219 95.961h-255.781zM640 128v-64.211c0-17.55-14.326-31.789-31.999-31.789h-480.003c-17.448 0-31.999 14.262-31.999 31.855v736.291c0 17.286 14.264 31.855 31.858 31.855h320.142v-159.811c0-35.82 28.624-64.189 63.933-64.189h128.067v-64h-255.781c-53.14 0-96.219-42.952-96.219-95.961v-224.078c0-52.998 42.752-95.961 96.219-95.961h255.781zM480 816l150.398-176h-118.503c-17.475 0-31.896 14.453-31.896 32.281v143.719zM383.826 512h544.348c34.951 0 63.826-28.539 63.826-63.745v-224.511c0-34.939-28.576-63.745-63.826-63.745h-544.348c-34.951 0-63.826 28.539-63.826 63.745v224.511c0 34.939 28.576 63.745 63.826 63.745zM544 320v-64h-64.006c-17.795 0-31.994 14.324-31.994 31.994v96.012c0 17.795 14.324 31.994 31.994 31.994h96.006v32h-95.844c-35.432 0-64.156-28.37-64.156-64.189v-95.621c0-35.451 28.605-64.189 64.156-64.189h95.844v128h-96v-32h64zM640 416v-160h-32v-32h96v32h-32v160h32v32h-96v-32h32zM768 352v64h128v32h-160v-224h32v96h96v32h-96z" />
<glyph unicode="&#xe902;" glyph-name="facebook" d="M608 768h160v192h-160c-123.514 0-224-100.486-224-224v-96h-128v-192h128v-512h192v512h160l32 192h-192v96c0 17.346 14.654 32 32 32z" />
<glyph unicode="&#xe903;" glyph-name="arrow-down2" d="M486.966 959.999v-731.937h46.759v731.937zM319.574 227.798l191.999-285.201 192 285.201-216.607 0.306z" />
<glyph unicode="&#xe904;" glyph-name="arrow-left1" d="M793.867 885.441l-457.281-458.774 457.281-458.774-53.402-53.226-510.334 512 510.334 512z" />
<glyph unicode="&#xe905;" glyph-name="phone1" horiz-adv-x="805" d="M804.571 242.286c0-20.571-9.143-60.571-17.714-79.429-12-28-44-46.286-69.714-60.571-33.714-18.286-68-29.143-106.286-29.143-53.143 0-101.143 21.714-149.714 39.429-34.857 12.571-68.571 28-100 47.429-97.143 60-214.286 177.143-274.286 274.286-19.429 31.429-34.857 65.143-47.429 100-17.714 48.571-39.429 96.571-39.429 149.714 0 38.286 10.857 72.571 29.143 106.286 14.286 25.714 32.571 57.714 60.571 69.714 18.857 8.571 58.857 17.714 79.429 17.714 4 0 8 0 12-1.714 12-4 24.571-32 30.286-43.429 18.286-32.571 36-65.714 54.857-97.714 9.143-14.857 26.286-33.143 26.286-50.857 0-34.857-103.429-85.714-103.429-116.571 0-15.429 14.286-35.429 22.286-49.143 57.714-104 129.714-176 233.714-233.714 13.714-8 33.714-22.286 49.143-22.286 30.857 0 81.714 103.429 116.571 103.429 17.714 0 36-17.143 50.857-26.286 32-18.857 65.143-36.571 97.714-54.857 11.429-5.714 39.429-18.286 43.429-30.286 1.714-4 1.714-8 1.714-12z" />
<glyph unicode="&#xe906;" glyph-name="ok" horiz-adv-x="731" d="M365.714 432.571c-142.857 0-259.429 116-259.429 258.857 0 143.429 116.571 259.429 259.429 259.429s259.429-116 259.429-259.429c0-142.857-116.571-258.857-259.429-258.857zM365.714 819.428c-70.286 0-127.429-57.143-127.429-128 0-70.286 57.143-127.429 127.429-127.429s127.429 57.143 127.429 127.429c0 70.857-57.143 128-127.429 128zM664.571 401.143c25.143-51.429-3.429-76-68.571-118.286-54.857-34.857-130.286-48.571-180-53.714l41.714-41.143 152.571-152.571c22.857-23.429 22.857-61.143 0-84l-6.857-7.429c-23.429-22.857-61.143-22.857-84.571 0-38.286 38.857-94.286 94.857-152.571 153.143l-152.571-153.143c-23.429-22.857-61.143-22.857-84 0l-6.857 7.429c-23.429 22.857-23.429 60.571 0 84 38.857 38.857 94.286 94.857 152.571 152.571l41.143 41.143c-49.143 5.143-125.714 18.286-181.143 53.714-65.143 42.286-93.714 66.857-68.571 118.286 14.857 29.143 55.429 53.714 109.143 11.429 0 0 72.571-57.714 189.714-57.714s189.714 57.714 189.714 57.714c53.714 42.286 94.286 17.714 109.143-11.429z" />
<glyph unicode="&#xe907;" glyph-name="twitter" d="M886.579 653.005c0.41-8.294 0.563-16.691 0.563-24.986 0-255.488-194.406-549.99-549.888-549.99-109.21 0-210.739 32-296.294 86.886 15.155-1.792 30.515-2.714 46.080-2.714 90.624 0 173.926 30.925 240.026 82.688-84.531 1.587-155.955 57.395-180.531 134.195 11.776-2.202 23.91-3.379 36.352-3.379 17.664 0 34.765 2.304 50.944 6.707-88.422 17.818-155.034 95.898-155.034 189.594 0 0.819 0 1.587 0 2.406 26.061-14.49 55.91-23.194 87.552-24.218-51.866 34.714-86.016 93.798-86.016 160.922 0 35.379 9.523 68.608 26.214 97.178 95.283-116.992 237.773-193.894 398.387-201.984-3.277 14.182-4.966 28.877-4.966 44.083 0 106.701 86.477 193.178 193.229 193.178 55.603 0 105.83-23.398 141.107-60.979 43.981 8.704 85.35 24.781 122.726 46.899-14.438-45.107-45.107-82.995-84.992-106.906 39.117 4.71 76.288 15.002 111.002 30.413-25.907-38.81-58.675-72.806-96.461-99.994z" />
<glyph unicode="&#xe908;" glyph-name="arrow-left3" d="M1020.275 420.095h-731.937v46.759h731.937zM288.074 252.702l-285.201 191.999 285.201 192 0.306-216.607z" />
<glyph unicode="&#xe909;" glyph-name="socialbtn" d="M402.286 751.238q-87.429 0-163.429-29.714t-120.857-80.571-44.857-109.143q0-46.857 30.286-90.286t85.143-75.429l55.429-32-20-48q19.429 11.429 35.429 22.286l25.143 17.714 30.286-5.714q44.571-8 87.429-8 87.429 0 163.429 29.714t120.857 80.571 44.857 109.143-44.857 109.143-120.857 80.571-163.429 29.714zM402.286 824.381q109.143 0 202-39.143t146.571-106.571 53.714-146.857-53.714-146.857-146.571-106.571-202-39.143q-49.143 0-100.571 9.143-70.857-50.286-158.857-73.143-20.571-5.143-49.143-9.143h-1.714q-6.286 0-11.714 4.571t-6.571 12q-0.571 1.714-0.571 3.714t0.286 3.714 1.143 3.429l1.429 2.857t2 3.143 2.286 2.857 2.571 2.857 2.286 2.571q2.857 3.429 13.143 14.286t14.857 16.857 12.857 16.571 14.286 22 11.714 25.143q-70.857 41.143-111.429 101.143t-40.571 128q0 79.429 53.714 146.857t146.571 106.571 202 39.143zM872 156.381q5.714-13.714 11.714-25.143t14.286-22 12.857-16.571 14.857-16.857 13.143-14.286q0.571-0.571 2.286-2.571t2.571-2.857 2.286-2.857 2-3.143l1.429-2.857t1.143-3.429 0.286-3.714-0.571-3.714q-1.714-8-7.429-12.571t-12.571-4q-28.571 4-49.143 9.143-88 22.857-158.857 73.143-51.429-9.143-100.571-9.143-154.857 0-269.714 75.429 33.143-2.286 50.286-2.286 92 0 176.571 25.714t150.857 73.714q71.429 52.571 109.714 121.143t38.286 145.143q0 44-13.143 86.857 73.714-40.571 116.571-101.714t42.857-131.429q0-68.571-40.571-128.286t-111.429-100.857z" />
<glyph unicode="&#xe90a;" glyph-name="vk" d="M911.462 343.142c0 0 82.79-81.766 103.27-119.603 0.563-0.819 0.819-1.434 0.922-1.792 8.346-13.978 10.394-24.934 6.298-33.024-6.912-13.363-30.31-20.070-38.246-20.634 0 0-142.234 0-146.33 0-10.189 0-31.386 2.662-57.19 20.48-19.712 13.773-39.322 36.454-58.317 58.624-28.365 32.922-52.89 61.491-77.722 61.491-3.174 0-6.246-0.512-9.216-1.536-18.79-5.939-42.65-32.717-42.65-104.038 0-22.323-17.613-35.021-29.952-35.021 0 0-63.898 0-67.021 0-22.835 0-141.722 7.987-247.142 119.142-129.178 136.090-245.197 409.088-246.323 411.494-7.219 17.664 7.936 27.29 24.32 27.29h147.763c19.814 0 26.266-11.981 30.771-22.733 5.222-12.339 24.576-61.696 56.32-117.146 51.405-90.214 82.995-126.925 108.237-126.925 4.762 0 9.267 1.178 13.517 3.584 32.973 18.125 26.829 135.885 25.293 160.154 0 4.71-0.051 52.582-16.947 75.725-12.083 16.589-32.666 23.040-45.107 25.395 3.328 4.813 10.394 12.186 19.456 16.538 22.579 11.264 63.386 12.902 103.885 12.902h22.477c43.93-0.614 55.296-3.43 71.27-7.475 32.154-7.68 32.768-28.518 29.952-99.482-0.819-20.275-1.69-43.11-1.69-69.99 0-5.734-0.256-12.134-0.256-18.637-0.973-36.403-2.253-77.414 23.45-94.259 3.277-2.048 7.117-3.174 11.11-3.174 8.909 0 35.584 0 107.93 124.16 31.744 54.835 56.32 119.501 58.010 124.365 1.434 2.714 5.734 10.342 10.957 13.414 3.994 2.458 9.318 2.867 12.083 2.867h173.824c18.944 0 31.795-2.867 34.304-10.035 4.198-11.622-0.819-47.104-80.179-154.419-13.363-17.869-25.088-33.331-35.379-46.848-71.936-94.413-71.936-99.174 4.25-170.854z" />
<glyph unicode="&#xe90b;" glyph-name="whatsapp" d="M642.857 382.096q7.429 0 55.714-25.143t51.143-30.286q1.143-2.857 1.143-8.571 0-18.857-9.714-43.429-9.143-22.286-40.571-37.429t-58.286-15.143q-32.571 0-108.571 35.429-56 25.714-97.143 67.429t-84.571 105.714q-41.143 61.143-40.571 110.857v4.571q1.714 52 42.286 90.286 13.714 12.571 29.714 12.571 3.429 0 10.286-0.857t10.857-0.857q10.857 0 15.143-3.714t8.857-15.714q4.571-11.429 18.857-50.286t14.286-42.857q0-12-19.714-32.857t-19.714-26.571q0-4 2.857-8.571 19.429-41.714 58.286-78.286 32-30.286 86.286-57.714 6.857-4 12.571-4 8.571 0 30.857 27.714t29.714 27.714zM526.857 79.238q72.571 0 139.143 28.571t114.571 76.571 76.571 114.571 28.571 139.143-28.571 139.143-76.571 114.571-114.571 76.571-139.143 28.571-139.143-28.571-114.571-76.571-76.571-114.571-28.571-139.143q0-116 68.571-210.286l-45.143-133.143 138.286 44q90.286-59.429 197.143-59.429zM526.857 868.953q87.429 0 167.143-34.286t137.429-92 92-137.429 34.286-167.143-34.286-167.143-92-137.429-137.429-92-167.143-34.286q-111.429 0-208.571 53.714l-238.286-76.571 77.714 231.429q-61.714 101.714-61.714 222.286 0 87.429 34.286 167.143t92 137.429 137.429 92 167.143 34.286z" />
<glyph unicode="&#xe90c;" glyph-name="telega" d="M1008 932.381q18.857-13.714 15.429-36.571l-146.286-877.714q-2.857-16.571-18.286-25.714-8-4.571-17.714-4.571-6.286 0-13.714 2.857l-301.143 122.857-170.286-186.857q-10.286-12-26.857-12-8 0-13.143 2.286-10.857 4-17.143 13.429t-6.286 20.857v258.286l-269.714 110.286q-21.143 8-22.857 31.429-1.714 22.286 18.286 33.714l950.857 548.571q20 12 38.857-1.143zM812.571 75.81l126.286 756-819.429-472.571 192-78.286 493.143 365.143-273.143-455.429z" />
<glyph unicode="&#xe90d;" glyph-name="arrow-right3" d="M2.872 420.095h731.937v46.759h-731.937zM735.073 252.702l285.201 191.999-285.201 192-0.306-216.607z" />
<glyph unicode="&#xe90e;" glyph-name="telegram" d="M1004.663 945.923c-17.467 16.282-44.902 18.611-73.269 6.093h-0.047c-29.834-13.158-844.505-397.262-877.669-412.955-6.032-2.304-58.713-23.91-53.287-72.039 4.844-43.392 47.185-61.363 52.355-63.437l207.115-77.952c13.741-50.279 64.396-235.777 75.598-275.406 6.987-24.704 18.376-57.165 38.335-63.847 17.514-7.424 34.934-0.64 46.207 9.088l126.626 129.101 204.413-175.233 4.868-3.2c13.881-6.758 27.179-10.138 39.872-10.138 9.805 0 19.214 2.022 28.204 6.067 30.626 13.824 42.876 45.901 44.157 49.536l152.687 872.374c9.316 46.592-3.633 70.298-16.163 81.946zM442.522 294.452l-69.869-204.801-69.869 256.001 535.661 435.201z" />
<glyph unicode="&#xe90f;" glyph-name="arrow-right1" d="M283.533 938.667l-53.402-53.226 457.281-458.774-457.281-458.774 53.402-53.226 510.334 512z" />
<glyph unicode="&#xe910;" glyph-name="arrow-up1" horiz-adv-x="390" d="M169.845-64v736.684h47.444v-736.684zM0 672.949l194.812 287.051 194.813-287.051-219.78-0.308z" />
<glyph unicode="&#xe911;" glyph-name="youtube" d="M513.707 797.76c25.173 0 321.707-0.853 398.507-21.333 44.401-12.522 78.546-47.091 90.248-90.833l0.205-0.901c21.333-81.067 21.333-249.6 21.333-249.6v-1.707c0-18.347-1.28-171.947-21.333-247.467-11.776-44.818-45.956-79.564-89.545-91.94l-0.908-0.22c-75.093-20.48-360.533-21.333-396.8-21.76h-7.253c-36.267 0-321.707 1.28-396.373 21.333-44.595 12.669-78.81 47.592-90.256 91.691l-0.197 0.895c-17.92 68.693-20.907 200.533-21.333 238.933v21.333c0.427 38.4 3.413 170.24 21.333 238.933 12.039 44.467 46.148 78.859 89.546 91.088l0.908 0.219c76.8 20.907 373.333 21.76 398.507 21.76zM407.040 588.693v-306.347l267.947 152.747-267.947 153.173z" />
<glyph unicode="&#xe912;" glyph-name="cart" d="M389.178 194.581c-71.292 0-129.291-58-129.291-129.291s58-129.291 129.291-129.291c71.292 0 129.291 58 129.291 129.291s-58.002 129.291-129.291 129.291zM389.178 13.574c-28.522 0-51.716 23.194-51.716 51.716s23.194 51.716 51.716 51.716c28.508 0 51.716-23.194 51.716-51.716 0-28.52-23.194-51.716-51.716-51.716zM771.879 194.581c-71.292 0-129.291-58-129.291-129.291s58-129.291 129.291-129.291c71.292 0 129.291 58 129.291 129.291s-58 129.291-129.291 129.291zM771.879 13.574c-28.522 0-51.716 23.194-51.716 51.716s23.194 51.716 51.716 51.716c28.522 0 51.716-23.194 51.716-51.716 0-28.52-23.194-51.716-51.716-51.716zM996.172 707.453c-7.37 9.258-18.54 14.648-30.358 14.648h-679.163l-35.258 178.189c-3.090 15.606-15.398 27.746-31.056 30.616l-155.149 28.444c-21.112 3.892-41.282-10.086-45.148-31.16s10.084-41.282 31.16-45.148l129.213-23.686 113.828-575.332c3.594-18.166 19.536-31.262 38.050-31.262h543.022c18.062 0 33.72 12.45 37.792 30.074l90.504 391.75c2.662 11.52-0.078 23.622-7.436 32.866zM844.463 330.336h-480.316l-62.15 314.177h615.036l-72.57-314.177z" />
<glyph unicode="&#xe913;" glyph-name="phoneblack" d="M689.597 248.071c48.837-31.805 107.241-65.273 167.472-95.646l10.953-5.007c19.068-7.744 32.268-26.124 32.268-47.587 0-8.393-2.018-16.314-5.596-23.304l0.134 0.289-10.159-35.6c-5.409-27.175-23.713-49.145-48.128-59.558l-0.533-0.202c-37.152-21.732-80.538-37.637-126.746-45.128l-2.164-0.289c-123.617-2.561-232.892 100.652-309.385 186.963-46.828 52.364-89.611 110.392-126.651 172.254l-2.857 5.147c-33.775 56.683-64.59 122.386-88.857 191.18l-2.404 7.82c-37.734 108.421-73.931 253.211-9.903 357.363 29.024 34.855 63.599 63.905 102.576 86.117l1.833 0.962c13.657 10.089 30.825 16.148 49.409 16.148 9.824 0 19.253-1.693 28.010-4.804l-0.585 0.181 36.453-9.135c26.857-2.935 47.571-25.493 47.571-52.889 0-2.423-0.162-4.807-0.476-7.144l0.030 0.273c-0.598-79.139-1.793-135.911 0.939-200.964 1.024-26.977-9.562-30.819-34.148-40.295l-39.868-15.367c-22.87-3.545-40.171-23.093-40.171-46.682 0-3.945 0.484-7.776 1.395-11.439l-0.068 0.325c31.421-146.081 107.345-270.934 212.653-363.018l0.774-0.663c8.641-8.141 20.318-13.145 33.163-13.145 14.908 0 28.242 6.739 37.121 17.338l0.062 0.076 33.38 26.209c6.854 9.819 18.099 16.162 30.826 16.162 8.201 0 15.787-2.634 21.958-7.103l-0.109 0.075z" />
<glyph unicode="&#xe914;" glyph-name="user" d="M881.969 802.437c-96.652 100.885-230.381 157.819-370.094 157.562-282.343 0.356-511.519-228.241-511.874-510.587-0.176-139.61 56.752-273.218 157.562-369.801 0.293-0.291 0.403-0.731 0.694-0.988 2.961-2.851 6.178-5.266 9.177-8.008 8.226-7.311 16.452-14.88 25.118-21.937 4.642-3.657 9.469-7.311 14.222-10.675 8.19-6.105 16.38-12.211 24.934-17.843 5.814-3.657 11.81-7.311 17.768-10.968 7.896-4.754 15.758-9.542 23.912-13.892 6.911-3.657 13.965-6.799 20.985-10.126 7.678-3.657 15.246-7.311 23.106-10.602s15.758-5.85 23.727-8.702c7.969-2.851 14.844-5.484 22.485-7.823 8.629-2.596 17.476-4.606 26.251-6.763 7.311-1.791 14.404-3.839 21.937-5.302 10.090-2.012 20.328-3.29 30.566-4.681 6.326-0.878 12.504-2.121 18.901-2.742 16.746-1.645 33.635-2.56 50.673-2.56s33.929 0.915 50.673 2.56c6.399 0.621 12.577 1.864 18.901 2.742 10.238 1.39 20.473 2.669 30.566 4.681 7.311 1.463 14.625 3.657 21.937 5.302 8.775 2.157 17.622 4.169 26.251 6.763 7.641 2.339 15.026 5.191 22.485 7.823s15.94 5.484 23.727 8.702c7.787 3.218 15.428 6.984 23.106 10.602 7.020 3.327 14.077 6.472 20.985 10.126 8.153 4.351 16.013 9.141 23.912 13.892 5.96 3.657 11.956 6.984 17.768 10.968 8.556 5.63 16.746 11.735 24.934 17.843 4.754 3.657 9.578 6.947 14.222 10.675 8.665 6.947 16.892 14.332 25.118 21.937 2.997 2.742 6.215 5.154 9.177 8.008 0.291 0.255 0.403 0.694 0.694 0.988 203.886 195.326 210.82 518.946 15.495 722.825zM799.794 117.892c-6.654-5.85-13.528-11.407-20.473-16.782-4.094-3.145-8.19-6.251-12.395-9.25-6.617-4.79-13.344-9.323-20.182-13.674-4.972-3.181-10.054-6.251-15.174-9.25-6.435-3.657-12.98-7.311-19.597-10.968-5.85-2.997-11.81-5.814-17.804-8.593s-12.614-5.739-19.085-8.335c-6.472-2.596-13.344-5.045-20.109-7.311-6.178-2.121-12.356-4.314-18.61-6.178-7.311-2.194-14.953-3.985-22.521-5.814-5.923-1.388-11.772-2.961-17.768-4.132-8.665-1.682-17.513-2.851-26.397-4.057-5.045-0.658-10.054-1.572-15.137-2.084-14.040-1.352-28.263-2.157-42.631-2.157s-28.59 0.803-42.631 2.157c-5.081 0.512-10.090 1.427-15.137 2.084-8.884 1.206-17.731 2.376-26.397 4.057-5.996 1.17-11.847 2.742-17.768 4.132-7.569 1.827-15.101 3.657-22.521 5.814-6.251 1.864-12.431 4.057-18.61 6.178-6.763 2.339-13.528 4.717-20.109 7.311-6.581 2.596-12.796 5.448-19.085 8.335s-11.956 5.593-17.804 8.593c-6.617 3.436-13.162 7.057-19.597 10.968-5.118 2.997-10.201 6.069-15.174 9.25-6.836 4.351-13.565 8.884-20.182 13.674-4.205 2.997-8.299 6.105-12.395 9.25-6.947 5.375-13.82 10.968-20.473 16.782-1.609 1.206-3.072 2.742-4.642 4.132 1.635 124.372 81.534 234.192 199.368 274.025 58.918-28.027 127.324-28.027 186.242 0 117.832-39.833 197.731-149.651 199.368-274.025-1.536-1.39-2.999-2.781-4.569-4.132zM384.383 666.859c39.587 70.403 128.749 95.383 199.152 55.797s95.383-128.749 55.797-199.152c-13.134-23.359-32.436-42.661-55.797-55.797-0.182 0-0.403 0-0.621-0.219-9.696-5.396-19.942-9.736-30.566-12.943-1.9-0.548-3.657-1.279-5.666-1.754-3.657-0.951-7.496-1.609-11.262-2.266-7.091-1.24-14.265-1.96-21.461-2.157h-4.169c-7.196 0.197-14.37 0.917-21.461 2.157-3.657 0.658-7.532 1.315-11.26 2.266-1.939 0.476-3.657 1.206-5.666 1.754-10.623 3.207-20.87 7.545-30.566 12.943l-0.658 0.219c-70.403 39.587-95.383 128.749-55.797 199.152zM869.222 194.522v0c-23.462 109.432-95.523 202.206-195.748 252.014 81.93 89.248 75.996 228.016-13.252 309.946s-228.016 75.996-309.946-13.252c-77.022-83.903-77.022-212.793 0-296.694-100.225-49.809-172.286-142.581-195.748-252.014-140.197 197.478-93.762 471.219 103.717 611.416s471.219 93.762 611.416-103.717c52.701-74.235 80.992-163.033 80.947-254.074 0-90.962-28.458-179.644-81.386-253.625z" />
<glyph unicode="&#xe915;" glyph-name="place" d="M851.902 781.958c-78.174 113.14-202.068 178.042-339.89 178.042s-261.716-64.902-339.89-178.042c-77.79-112.568-95.752-255.082-48.144-380.992 12.734-34.384 32.976-67.79 60.020-99.094l300.756-353.268c6.802-7.996 16.768-12.604 27.258-12.604s20.456 4.606 27.258 12.604l300.672 353.172c27.164 31.484 47.38 64.854 60.008 98.962 47.704 126.138 29.742 268.652-48.048 381.22zM832.902 425.814c-9.738-26.316-25.636-52.334-47.226-77.36-0.060-0.060-0.12-0.12-0.168-0.192l-273.496-321.236-273.664 321.438c-21.578 25.004-37.476 51.020-47.31 77.588-39.372 104.13-24.43 221.962 39.982 315.184 64.614 93.52 167.038 147.156 280.992 147.156 113.952 0 216.364-53.634 280.98-147.156 64.424-93.222 79.378-211.054 39.91-315.422zM512.012 747.562c-110.552 0-200.504-89.94-200.504-200.504s89.94-200.504 200.504-200.504 200.504 89.94 200.504 200.504c0 110.552-89.952 200.504-200.504 200.504zM512.012 418.164c-71.072 0-128.896 57.824-128.896 128.896s57.824 128.896 128.896 128.896c71.072 0 128.896-57.824 128.896-128.896s-57.824-128.896-128.896-128.896z" />
<glyph unicode="&#xe916;" glyph-name="appeal" d="M971.2 765.4v-286.8c0-20-16.2-36-36-36-20 0-36 16.2-36 36v286.8c0 39.8-32.4 72.2-72.2 72.2h-634.8c-39.8 0-72.2-32.4-72.2-72.2v-467c0-39.8 32.4-72.2 72.2-72.2h182c20 0 36-16.2 36-36s-16.2-36-36-36h-182c-79.4-0.2-144.2 64.6-144.2 144.2v467c0 79.6 64.8 144.2 144.2 144.2h634.6c79.6 0 144.4-64.6 144.4-144.2zM935 334.4c-20 0-36-16.2-36-36 0-39.8-32.4-72.2-72.2-72.2-20 0-36-16.2-36-36s16.2-36 36-36c79.6 0 144.2 64.8 144.2 144.2 0.2 19.8-16 36-36 36zM230 693.2h207.4c20 0 36 16.2 36 36s-16.2 36-36 36h-207.4c-20 0-36-16.2-36-36s16-36 36-36zM790.8 693.2c20 0 36 16.2 36 36s-16.2 36-36 36h-207.4c-20 0-36-16.2-36-36s16.2-36 36-36h207.4zM826.8 585c0 20-16.2 36-36 36h-560.8c-20 0-36-16.2-36-36s16.2-36 36-36h560.8c19.8 0 36 16.2 36 36zM230 476.8c-20 0-36-16.2-36-36 0-20 16.2-36 36-36h133.4c20 0 36 16.2 36 36 0 20-16.2 36-36 36h-133.4zM765.6 311c0-51-23.2-96.8-59.6-127.2v-161.4c0-12.2-6-23.4-16.2-30-6-4-13-6-20-6-4.8 0-9.6 1-14.2 2.8l-58 24.6-58-24.6c-11.2-4.8-24-3.6-34 3.2-10 6.6-16.2 18-16.2 30v164.4c-34.2 30.4-56 74.8-56 124 0 91.4 74.4 166 166 166 91.8 0 166.2-74.4 166.2-165.8zM505.8 311c0-51.8 42-93.8 93.8-93.8s93.8 42 93.8 93.8-42 93.8-93.8 93.8c-51.6 0-93.8-42.2-93.8-93.8zM633.8 148.6c-11-2.4-22.6-3.6-34.2-3.6-13 0-25.6 1.6-37.8 4.4v-72.4l22 9.4c9 3.8 19.2 3.8 28.2 0l22-9.4-0.2 71.6z" />
<glyph unicode="&#xe917;" glyph-name="search" d="M990 6.267l-235.6 235.6c58.4 71.2 93.6 162.4 93.6 261.8 0 228-185 413-413 413-228.2 0-413-185-413-413s184.8-413 413-413c99.4 0 190.4 35 261.6 93.4l235.6-235.4c16-16 41.8-16 57.8 0 16 15.8 16 41.8 0 57.6zM435 172.867c-182.6 0-331 148.4-331 330.8s148.4 331 331 331c182.4 0 331-148.6 331-331s-148.6-330.8-331-330.8z" />
<glyph unicode="&#xe918;" glyph-name="document-file-rar" d="M672 544v96l-192 224h-351.912c-35.395 0-64.088-28.747-64.088-64.235v-735.531c0-35.476 28.51-64.235 63.918-64.235h480.165c35.301 0 63.918 28.743 63.918 63.705v64.295h255.781c53.14 0 96.219 42.952 96.219 95.961v224.078c0 52.998-42.752 95.961-96.219 95.961h-255.781zM640 128v-64.211c0-17.55-14.326-31.789-31.999-31.789h-480.003c-17.448 0-31.999 14.262-31.999 31.855v736.291c0 17.286 14.264 31.855 31.858 31.855h320.142v-159.811c0-35.82 28.624-64.189 63.933-64.189h128.067v-64h-255.781c-53.14 0-96.219-42.952-96.219-95.961v-224.078c0-52.998 42.752-95.961 96.219-95.961h255.781zM480 816l150.398-176h-118.503c-17.475 0-31.896 14.453-31.896 32.281v143.719zM383.826 512h544.348c34.951 0 63.826-28.539 63.826-63.745v-224.511c0-34.939-28.576-63.745-63.826-63.745h-544.348c-34.951 0-63.826 28.539-63.826 63.745v224.511c0 34.939 28.576 63.745 63.826 63.745zM441.6 320h-25.6v-96h-32v224h95.844c35.551 0 64.156-28.654 64.156-64 0-35.54-28.639-63.916-64-64l64-96h-38.4l-64 96zM416 416v-64h64.033c17.655 0 31.967 14.204 31.967 32 0 17.673-14.165 32-31.967 32h-64.033zM704 320h-96v-96h-32v160c0 35.593 28.724 64 64.156 64h31.688c35.551 0 64.156-28.654 64.156-64v-160h-32v96zM639.967 416c-17.655 0-31.967-14.204-31.967-32v-32h96v32c0 17.673-14.165 32-31.967 32h-32.067zM825.6 320h-25.6v-96h-32v224h95.844c35.551 0 64.156-28.654 64.156-64 0-35.54-28.639-63.916-64-64l64-96h-38.4l-64 96zM800 416v-64h64.033c17.655 0 31.967 14.204 31.967 32 0 17.673-14.165 32-31.967 32h-64.033z" />
<glyph unicode="&#xe919;" glyph-name="document-file-iso" d="M672 544v96l-192 224h-351.912c-35.395 0-64.088-28.747-64.088-64.235v-735.531c0-35.476 28.51-64.235 63.918-64.235h480.165c35.301 0 63.918 28.743 63.918 63.705v64.295h255.781c53.14 0 96.219 42.952 96.219 95.961v224.078c0 52.998-42.752 95.961-96.219 95.961h-255.781zM640 128v-64.211c0-17.55-14.326-31.789-31.999-31.789h-480.003c-17.448 0-31.999 14.262-31.999 31.855v736.291c0 17.286 14.264 31.855 31.858 31.855h320.142v-159.811c0-35.82 28.624-64.189 63.933-64.189h128.067v-64h-255.781c-53.14 0-96.219-42.952-96.219-95.961v-224.078c0-52.998 42.752-95.961 96.219-95.961h255.781zM480 816l150.398-176h-118.503c-17.475 0-31.896 14.453-31.896 32.281v143.719zM383.826 512h544.348c34.951 0 63.826-28.539 63.826-63.745v-224.511c0-34.939-28.576-63.745-63.826-63.745h-544.348c-34.951 0-63.826 28.539-63.826 63.745v224.511c0 34.939 28.576 63.745 63.826 63.745zM448 416v-160h-32v-32h96v32h-32v160h32v32h-96v-32h32zM608.156 448c-35.432 0-64.156-28.407-64.156-64 0-35.346 28.407-64 64-64h31.7c17.839 0 32.3-14.204 32.3-32 0-17.673-14.165-32-31.967-32h-32.067c-17.655 0-31.967 14.601-31.967 31.857v0.362h-32v-0.184c0-35.365 28.605-64.035 64.156-64.035h31.688c35.432 0 64.156 28.407 64.156 64 0 35.346-28.407 64-64 64h-31.7c-17.839 0-32.3 14.204-32.3 32 0 17.673 14.165 32 31.967 32h32.067c17.655 0 31.967-14.502 31.967-32h32c0 35.346-28.605 64-64.156 64h-31.688zM800.156 448h31.688c35.551 0 64.156-28.739 64.156-64.189v-95.621c0-35.82-28.724-64.189-64.156-64.189h-31.688c-35.551 0-64.156 28.739-64.156 64.189v95.621c0 35.82 28.724 64.189 64.156 64.189zM799.967 416c-17.655 0-31.967-14.199-31.967-31.994v-96.012c0-17.67 14.165-31.994 31.967-31.994h32.067c17.655 0 31.967 14.199 31.967 31.994v96.012c0 17.67-14.165 31.994-31.967 31.994h-32.067z" />
<glyph unicode="&#xe91a;" glyph-name="document-file-tgz" d="M672 544v96l-192 224h-351.912c-35.395 0-64.088-28.747-64.088-64.235v-735.531c0-35.476 28.51-64.235 63.918-64.235h480.165c35.301 0 63.918 28.743 63.918 63.705v64.295h255.781c53.14 0 96.219 42.952 96.219 95.961v224.078c0 52.998-42.752 95.961-96.219 95.961h-255.781zM640 128v-64.211c0-17.55-14.326-31.789-31.999-31.789h-480.003c-17.448 0-31.999 14.262-31.999 31.855v736.291c0 17.286 14.264 31.855 31.858 31.855h320.142v-159.811c0-35.82 28.624-64.189 63.933-64.189h128.067v-64h-255.781c-53.14 0-96.219-42.952-96.219-95.961v-224.078c0-52.998 42.752-95.961 96.219-95.961h255.781zM480 816l150.398-176h-118.503c-17.475 0-31.896 14.453-31.896 32.281v143.719zM383.826 512h544.348c34.951 0 63.826-28.539 63.826-63.745v-224.511c0-34.939-28.576-63.745-63.826-63.745h-544.348c-34.951 0-63.826 28.539-63.826 63.745v224.511c0 34.939 28.576 63.745 63.826 63.745zM448 416v-192h32v192h64v32h-160v-32h64zM704 320v-64h-64.006c-17.795 0-31.994 14.324-31.994 31.994v96.012c0 17.795 14.324 31.994 31.994 31.994h96.006v32h-95.844c-35.432 0-64.156-28.37-64.156-64.189v-95.621c0-35.451 28.605-64.189 64.156-64.189h95.844v128h-96v-32h64zM800 256l128 160v32h-160v-32h128l-128-160v-32h160v32h-128z" />
<glyph unicode="&#xe91b;" glyph-name="arrow-down" d="M680.66 202.316h-151.401v753.541h-25.6v-753.541h-155.2l166.101-270.459 83.049 135.229z" />
<glyph unicode="&#xe91c;" glyph-name="arrow-left" d="M273.019 609.958v-151.401h753.541v-25.6h-753.541v-155.2l-270.459 166.101 135.229 83.049z" />
<glyph unicode="&#xe91d;" glyph-name="arrow-right" d="M756.101 609.958v-151.401h-753.541v-25.6h753.541v-155.2l270.459 166.101-135.229 83.049z" />
<glyph unicode="&#xe91e;" glyph-name="arrow-up" d="M680.66 685.398h-151.401v-753.541h-25.6v753.541h-155.2l166.101 270.459 83.049-135.229z" />
<glyph unicode="&#xe91f;" glyph-name="arrow-bottom" d="M540.099 183.152l472.32 473.63c15.466 15.518 15.44 40.642-0.080 56.134-15.518 15.48-40.656 15.44-56.134-0.080l-444.208-445.438-444.206 445.454c-15.48 15.518-40.602 15.558-56.122 0.080-7.78-7.766-11.67-17.94-11.67-28.114 0-10.148 3.864-20.282 11.59-28.034l472.308-473.632c7.436-7.474 17.556-11.668 28.1-11.668s20.652 4.206 28.102 11.668z" />
<glyph unicode="&#xe920;" glyph-name="arrow-top" d="M540.099 712.848l472.32-473.63c15.466-15.518 15.44-40.642-0.080-56.134-15.518-15.48-40.656-15.44-56.134 0.080l-444.208 445.438-444.206-445.454c-15.48-15.518-40.602-15.558-56.122-0.080-7.78 7.766-11.67 17.94-11.67 28.114 0 10.148 3.864 20.282 11.59 28.034l472.308 473.632c7.436 7.474 17.556 11.668 28.1 11.668s20.652-4.206 28.102-11.668z" />
<glyph unicode="&#xe921;" glyph-name="world" d="M514.593 959.992c-0.036 0-0.070 0-0.106 0.002-0.164 0-0.326 0.006-0.488 0.006-0.024 0-0.048 0-0.072 0-0.064 0-0.13-0.002-0.194-0.002-282.161-0.144-513.733-228.502-513.733-509.997 0-68.832 13.71-135.864 40.752-199.236 52.354-122.696 151.054-221.544 274.009-274.009 63.364-27.038 130.388-40.75 199.21-40.752 0.018 0 0.036-0.004 0.054-0.004 0.046 0 0.094 0.004 0.14 0.006 283.101 0.090 509.833 233.344 509.833 513.995 0 281.451-227.516 509.673-509.405 509.991zM414.633 889.114c-51.162-48.504-92.964-105.312-124.442-169.114h-139.162c63.822 84.080 156.644 145.35 263.603 169.114zM112.572 660.401h151.982c-20.986-57.494-33.394-118.774-36.596-180.4h-166.924c4.314 64.656 22.464 126.014 51.538 180.4zM113.702 236.001c-29.78 55.48-48.346 117.826-52.684 184h166.736c2.864-62.992 15.364-125.262 36.804-184h-150.856zM152.258 176.002h137.934c31.418-63.684 73.162-120.472 124.308-168.988-106.226 23.846-198.486 85.022-262.241 168.988zM287.841 420.001h196.156v-184h-154.746c-23.956 57.716-38.192 119.838-41.41 184zM484.001 25.772c-51.008 42.47-93.3 93.47-125.462 150.23h125.46v-150.23zM484.001 480.001h-195.958c3.598 62.746 17.752 123.484 41.212 180h154.746v-180zM484.001 720h-125.458c32.16 56.76 74.452 107.76 125.458 150.232v-150.232zM911.888 660.001c28.82-54.386 46.808-115.344 51.086-180h-162.936c-3.202 61.626-15.61 122.506-36.596 180h148.446zM873.772 720h-135.964c-31.394 63.634-73.092 120.378-124.176 168.866 105.536-23.948 197.104-85.086 260.139-168.866zM544.001 870.22c51.006-42.472 93.314-93.46 125.474-150.22h-125.474v150.22zM543.999 660.001h154.784c23.456-56.512 37.578-117.258 41.176-180h-195.96v180zM740.175 420.401c-3.216-64.158-17.438-126.688-41.392-184.4h-154.784v184.4h196.176zM544.001 25.782v150.62h125.474c-32.16-56.76-74.468-108.146-125.474-150.62zM613.769 7.266c50.982 48.42 92.652 105.514 124.038 169.136h134.746c-62.962-83.66-153.974-145.106-258.783-169.136zM763.445 236.001c21.44 58.738 33.94 121.408 36.804 184.4h162.744c-4.3-66.174-22.702-128.92-52.22-184.4h-147.328z" />
<glyph unicode="&#xe922;" glyph-name="alert-circle" d="M981.333 448c0 129.579-52.565 246.997-137.472 331.861s-202.283 137.472-331.861 137.472-246.997-52.565-331.861-137.472-137.472-202.283-137.472-331.861 52.565-246.997 137.472-331.861 202.283-137.472 331.861-137.472 246.997 52.565 331.861 137.472 137.472 202.283 137.472 331.861zM896 448c0-106.069-42.923-201.984-112.469-271.531s-165.461-112.469-271.531-112.469-201.984 42.923-271.531 112.469-112.469 165.461-112.469 271.531 42.923 201.984 112.469 271.531 165.461 112.469 271.531 112.469 201.984-42.923 271.531-112.469 112.469-165.461 112.469-271.531zM469.333 618.667v-170.667c0-23.552 19.115-42.667 42.667-42.667s42.667 19.115 42.667 42.667v170.667c0 23.552-19.115 42.667-42.667 42.667s-42.667-19.115-42.667-42.667zM512 234.667c23.552 0 42.667 19.115 42.667 42.667s-19.115 42.667-42.667 42.667-42.667-19.115-42.667-42.667 19.115-42.667 42.667-42.667z" />
<glyph unicode="&#xe923;" glyph-name="alert-octagon" d="M335.36 917.333c-10.923 0-21.845-4.181-30.165-12.501l-250.027-250.027c-7.723-7.723-12.501-18.389-12.501-30.165v-353.28c0-10.923 4.181-21.845 12.501-30.165l250.027-250.027c7.723-7.723 18.389-12.501 30.165-12.501h353.28c10.923 0 21.845 4.181 30.165 12.501l250.027 250.027c7.723 7.723 12.501 18.389 12.501 30.165v353.28c0 10.923-4.181 21.845-12.501 30.165l-250.027 250.027c-7.723 7.723-18.389 12.501-30.165 12.501zM353.024 832h317.952l225.024-225.024v-317.952l-225.024-225.024h-317.952l-225.024 225.024v317.952zM469.333 618.667v-170.667c0-23.552 19.115-42.667 42.667-42.667s42.667 19.115 42.667 42.667v170.667c0 23.552-19.115 42.667-42.667 42.667s-42.667-19.115-42.667-42.667zM512 234.667c23.552 0 42.667 19.115 42.667 42.667s-19.115 42.667-42.667 42.667-42.667-19.115-42.667-42.667 19.115-42.667 42.667-42.667z" />
<glyph unicode="&#xe924;" glyph-name="alert-triangle" d="M475.648 773.376c3.115 5.248 7.893 10.325 14.251 14.165 10.069 6.101 21.589 7.595 32.256 4.949s20.224-9.216 26.197-19.115l361.216-603.008c2.987-5.12 5.077-11.435 5.461-18.517-0.64-15.701-5.077-25.216-12.075-32.384-7.68-7.851-18.219-12.715-29.568-12.843l-722.645 0.043c-6.485 0.043-13.696 1.749-20.523 5.717-10.197 5.888-17.024 15.317-19.883 25.899s-1.621 22.144 3.925 31.787zM402.432 817.237l-361.387-603.307c-18.005-31.189-21.589-66.133-13.141-97.707s29.013-60.075 59.648-77.739c19.797-11.435 41.643-17.067 62.933-17.152h722.901c35.797 0.384 67.712 15.104 90.581 38.485s36.864 55.595 36.48 90.923c-0.256 22.869-6.528 44.544-17.323 62.891l-361.557 603.605c-18.432 30.421-47.36 50.389-79.104 58.155s-66.603 3.456-96.811-14.891c-18.304-11.093-33.067-26.24-43.179-43.264zM469.333 576v-170.667c0-23.552 19.115-42.667 42.667-42.667s42.667 19.115 42.667 42.667v170.667c0 23.552-19.115 42.667-42.667 42.667s-42.667-19.115-42.667-42.667zM512 192c23.552 0 42.667 19.115 42.667 42.667s-19.115 42.667-42.667 42.667-42.667-19.115-42.667-42.667 19.115-42.667 42.667-42.667z" />
<glyph unicode="&#xe925;" glyph-name="at-sign" d="M640 448c0-35.371-14.293-67.285-37.504-90.496s-55.125-37.504-90.496-37.504-67.285 14.293-90.496 37.504-37.504 55.125-37.504 90.496 14.293 67.285 37.504 90.496 55.125 37.504 90.496 37.504 67.285-14.293 90.496-37.504 37.504-55.125 37.504-90.496zM671.573 306.432c5.547-7.765 11.691-15.061 18.389-21.76 30.848-30.848 73.6-50.005 120.704-50.005s89.856 19.157 120.661 50.005 50.005 73.557 50.005 120.661v42.667c0 129.579-52.608 246.997-137.472 331.861s-202.283 137.472-331.904 137.429-246.955-52.565-331.861-137.472-137.429-202.283-137.429-331.861 52.608-246.997 137.472-331.861 202.283-137.472 331.861-137.429c107.733 0 207.147 36.352 285.44 96.811 18.645 14.379 22.101 41.173 7.68 59.861s-41.173 22.101-59.861 7.68c-63.445-48.981-144.085-78.677-231.893-79.019-108.373 0.384-203.776 43.264-272.981 112.469-69.419 69.504-112.384 165.419-112.384 271.488s42.923 201.984 112.469 271.531 165.461 112.469 271.531 112.469 201.984-42.923 271.531-112.469 112.469-165.461 112.469-271.488v-42.667c0-23.595-9.515-44.843-25.003-60.331s-36.736-25.003-60.331-25.003-44.843 9.515-60.331 25.003-25.003 36.736-25.003 60.331v213.333c0 23.552-19.115 42.667-42.667 42.667s-42.667-19.115-42.667-42.667c-35.627 26.752-80 42.667-128 42.667-58.88 0-112.299-23.936-150.869-62.464s-62.464-91.989-62.464-150.869 23.936-112.299 62.464-150.869 91.989-62.464 150.869-62.464 112.299 23.936 150.869 62.464c2.987 2.987 5.931 6.101 8.747 9.259z" />
<glyph unicode="&#xe926;" glyph-name="award" d="M639.403 301.909l32-241.152-137.429 82.475c-13.269 7.851-29.995 8.363-43.904 0l-137.429-82.475 32.043 241.109c39.296-15.829 82.304-24.533 127.317-24.533s88.021 8.747 127.403 24.576zM654.165 405.717c-2.475-1.28-4.821-2.773-6.955-4.48-39.253-24.448-85.547-38.571-135.211-38.571-70.699 0-134.656 28.587-181.035 74.965s-74.965 110.336-74.965 181.035 28.587 134.656 74.965 181.035 110.336 74.965 181.035 74.965 134.656-28.587 181.035-74.965 74.965-110.336 74.965-181.035-28.587-134.656-74.965-181.035c-11.861-11.861-24.875-22.571-38.869-31.915zM304.64 347.52l-48.256-363.221c-3.115-23.339 13.312-44.8 36.693-47.915 9.984-1.323 19.669 0.939 27.563 5.717l191.36 114.816 191.403-114.816c20.224-12.117 46.421-5.589 58.539 14.635 5.205 8.661 6.955 18.389 5.717 27.563l-48.213 363.307c11.947 9.173 23.296 19.115 33.92 29.739 61.696 61.696 99.968 147.072 99.968 241.323s-38.272 179.627-99.968 241.365-147.115 99.968-241.365 99.968-179.627-38.272-241.365-99.968-99.968-147.115-99.968-241.365 38.272-179.627 99.968-241.365c10.667-10.667 22.016-20.608 33.963-29.781z" />
<glyph unicode="&#xe927;" glyph-name="bar-chart-2" d="M810.667 106.667v426.667c0 23.552-19.115 42.667-42.667 42.667s-42.667-19.115-42.667-42.667v-426.667c0-23.552 19.115-42.667 42.667-42.667s42.667 19.115 42.667 42.667zM554.667 106.667v682.667c0 23.552-19.115 42.667-42.667 42.667s-42.667-19.115-42.667-42.667v-682.667c0-23.552 19.115-42.667 42.667-42.667s42.667 19.115 42.667 42.667zM298.667 106.667v256c0 23.552-19.115 42.667-42.667 42.667s-42.667-19.115-42.667-42.667v-256c0-23.552 19.115-42.667 42.667-42.667s42.667 19.115 42.667 42.667z" />
<glyph unicode="&#xe928;" glyph-name="bell" d="M725.333 618.667c0-171.136 40.405-278.187 78.976-341.333h-584.619c38.571 63.147 78.976 170.197 78.976 341.333 0 58.923 23.851 112.213 62.464 150.869s91.947 62.464 150.869 62.464 112.213-23.851 150.869-62.464 62.464-91.947 62.464-150.869zM810.667 618.667c0 82.475-33.493 157.184-87.467 211.2s-128.725 87.467-211.2 87.467-157.184-33.493-211.2-87.467-87.467-128.725-87.467-211.2c0-261.419-102.101-343.339-109.355-348.757-19.328-13.141-24.448-39.424-11.477-58.923 8.192-12.245 21.589-18.901 35.499-18.987h768c23.552 0 42.667 19.115 42.667 42.667 0 14.464-7.168 27.221-18.304 35.029-7.509 5.547-109.696 87.467-109.696 348.971zM548.907 85.419c-5.931-10.197-15.317-17.024-25.941-19.84s-22.187-1.579-32.384 4.309c-6.912 4.011-12.075 9.472-15.317 15.232-11.691 20.48-37.717 27.605-58.197 15.915s-27.605-37.717-15.915-58.197c10.667-18.731 26.581-35.115 46.635-46.763 30.549-17.749 65.493-21.376 97.109-12.971s60.117 28.928 77.824 59.477c11.819 20.395 4.864 46.507-15.488 58.325s-46.507 4.864-58.325-15.488z" />
<glyph unicode="&#xe929;" glyph-name="bell-off" d="M548.907 85.419c-5.931-10.197-15.317-17.024-25.941-19.84s-22.187-1.579-32.384 4.309c-6.912 4.011-12.075 9.472-15.317 15.232-11.691 20.48-37.717 27.605-58.197 15.915s-27.605-37.717-15.915-58.197c10.667-18.731 26.581-35.115 46.635-46.763 30.549-17.749 65.493-21.376 97.109-12.971s60.117 28.928 77.824 59.477c11.819 20.395 4.864 46.507-15.488 58.325s-46.507 4.864-58.325-15.488zM810.667 619.648c-0.171 82.048-33.451 156.416-87.168 210.261-53.931 54.101-128.597 87.68-211.072 87.808-61.781 0.085-119.424-18.645-166.4-50.347-19.499-13.184-24.661-39.723-11.477-59.264s39.723-24.661 59.264-11.477c32.597 22.016 72.875 35.371 116.48 35.712 61.781-0.469 114.517-24.277 152.789-62.72 38.485-38.613 62.208-91.733 62.251-150.443-1.792-70.741 7.381-148.309 28.373-225.152 6.229-22.741 29.653-36.139 52.395-29.909s36.139 29.653 29.909 52.395c-18.901 69.333-26.965 138.667-25.344 200.875 0 0.213 0 0.469 0 0.683 0 0.128 0 0.256 0 0.384zM298.496 601.131l323.84-323.797h-402.645c37.205 60.928 76.075 162.645 78.805 323.797zM12.501 887.168l207.189-207.189c-4.523-21.035-6.613-41.984-6.357-61.867 0-260.864-102.101-342.784-109.355-348.203-19.328-13.141-24.448-39.424-11.477-58.923 8.192-12.245 21.589-18.901 35.499-18.987h579.669l243.499-243.499c16.683-16.683 43.691-16.683 60.331 0s16.683 43.691 0 60.331l-938.667 938.667c-16.683 16.683-43.691 16.683-60.331 0s-16.683-43.691 0-60.331z" />
<glyph unicode="&#xe92a;" glyph-name="camera" d="M1024 149.333v469.333c0 35.328-14.379 67.413-37.504 90.496s-55.168 37.504-90.496 37.504h-147.84l-72.661 109.013c-7.765 11.52-20.736 18.987-35.499 18.987h-256c-13.909-0.085-27.307-6.741-35.499-18.987l-72.661-109.013h-147.84c-35.328 0-67.413-14.379-90.496-37.504s-37.504-55.168-37.504-90.496v-469.333c0-35.328 14.379-67.413 37.504-90.496s55.168-37.504 90.496-37.504h768c35.328 0 67.413 14.379 90.496 37.504s37.504 55.168 37.504 90.496zM938.667 149.333c0-11.776-4.736-22.4-12.501-30.165s-18.389-12.501-30.165-12.501h-768c-11.776 0-22.4 4.736-30.165 12.501s-12.501 18.389-12.501 30.165v469.333c0 11.776 4.736 22.4 12.501 30.165s18.389 12.501 30.165 12.501h170.667c14.763 0 27.733 7.467 35.499 18.987l72.661 109.013h210.347l72.661-109.013c8.192-12.245 21.589-18.901 35.499-18.987h170.667c11.776 0 22.4-4.736 30.165-12.501s12.501-18.389 12.501-30.165zM725.333 405.333c0 58.88-23.936 112.299-62.464 150.869s-91.989 62.464-150.869 62.464-112.299-23.936-150.869-62.464-62.464-91.989-62.464-150.869 23.936-112.299 62.464-150.869 91.989-62.464 150.869-62.464 112.299 23.936 150.869 62.464 62.464 91.989 62.464 150.869zM640 405.333c0-35.371-14.293-67.285-37.504-90.496s-55.125-37.504-90.496-37.504-67.285 14.293-90.496 37.504-37.504 55.125-37.504 90.496 14.293 67.285 37.504 90.496 55.125 37.504 90.496 37.504 67.285-14.293 90.496-37.504 37.504-55.125 37.504-90.496z" />
<glyph unicode="&#xe92b;" glyph-name="camera-off" d="M384 789.333h233.173l72.661-109.013c8.192-12.245 21.589-18.901 35.499-18.987h170.667c11.776 0 22.4-4.736 30.165-12.501s12.501-18.389 12.501-30.165v-398.507c0-23.552 19.115-42.667 42.667-42.667s42.667 19.115 42.667 42.667v398.507c0 35.328-14.379 67.413-37.504 90.496s-55.168 37.504-90.496 37.504h-147.84l-72.661 109.013c-7.765 11.52-20.736 18.987-35.499 18.987h-256c-23.552 0-42.667-19.115-42.667-42.667s19.115-42.667 42.667-42.667zM352.512 547.157c-6.229-6.955-12.075-14.379-17.451-22.272-33.28-48.597-43.648-106.197-33.621-159.787s40.619-103.509 89.216-136.747 106.197-43.648 159.787-33.621c37.845 7.083 73.813 24.405 103.424 51.072l139.136-139.136h-665.003c-11.776 0-22.4 4.736-30.165 12.501s-12.501 18.389-12.501 30.165v469.333c0 11.776 4.736 22.4 12.501 30.165s18.389 12.501 30.165 12.501h110.336zM444.288 576.085l-371.456 371.413c-16.683 16.683-43.691 16.683-60.331 0s-16.683-43.691 0-60.331l140.501-140.501h-25.003c-35.328 0-67.413-14.379-90.496-37.504s-37.504-55.168-37.504-90.496v-469.333c0-35.328 14.379-67.413 37.504-90.496s55.168-37.504 90.496-37.504h750.336l72.832-72.832c16.683-16.683 43.691-16.683 60.331 0s16.683 43.691 0 60.331l-566.101 566.101zM593.365 306.304c-17.067-14.336-37.333-23.68-58.667-27.691-32.256-6.059-66.688 0.213-95.872 20.181s-47.488 49.792-53.547 82.048 0.213 66.688 20.181 95.872c2.389 3.499 4.907 6.827 7.509 9.941z" />
<glyph unicode="&#xe92c;" glyph-name="check" d="M823.168 734.165l-439.168-439.168-183.168 183.168c-16.683 16.683-43.691 16.683-60.331 0s-16.683-43.691 0-60.331l213.333-213.333c16.683-16.683 43.691-16.683 60.331 0l469.333 469.333c16.683 16.683 16.683 43.691 0 60.331s-43.691 16.683-60.331 0z" />
<glyph unicode="&#xe92d;" glyph-name="chevron-down" d="M225.835 545.835l256-256c16.683-16.683 43.691-16.683 60.331 0l256 256c16.683 16.683 16.683 43.691 0 60.331s-43.691 16.683-60.331 0l-225.835-225.835-225.835 225.835c-16.683 16.683-43.691 16.683-60.331 0s-16.683-43.691 0-60.331z" />
<glyph unicode="&#xe92e;" glyph-name="chevron-left" d="M670.165 222.165l-225.835 225.835 225.835 225.835c16.683 16.683 16.683 43.691 0 60.331s-43.691 16.683-60.331 0l-256-256c-16.683-16.683-16.683-43.691 0-60.331l256-256c16.683-16.683 43.691-16.683 60.331 0s16.683 43.691 0 60.331z" />
<glyph unicode="&#xe92f;" glyph-name="chevron-right" d="M414.165 161.835l256 256c16.683 16.683 16.683 43.691 0 60.331l-256 256c-16.683 16.683-43.691 16.683-60.331 0s-16.683-43.691 0-60.331l225.835-225.835-225.835-225.835c-16.683-16.683-16.683-43.691 0-60.331s43.691-16.683 60.331 0z" />
<glyph unicode="&#xe930;" glyph-name="chevron-up" d="M798.165 350.165l-256 256c-16.683 16.683-43.691 16.683-60.331 0l-256-256c-16.683-16.683-16.683-43.691 0-60.331s43.691-16.683 60.331 0l225.835 225.835 225.835-225.835c16.683-16.683 43.691-16.683 60.331 0s16.683 43.691 0 60.331z" />
<glyph unicode="&#xe931;" glyph-name="clock" d="M981.333 448c0 129.579-52.565 246.997-137.472 331.861s-202.283 137.472-331.861 137.472-246.997-52.565-331.861-137.472-137.472-202.283-137.472-331.861 52.565-246.997 137.472-331.861 202.283-137.472 331.861-137.472 246.997 52.565 331.861 137.472 137.472 202.283 137.472 331.861zM896 448c0-106.069-42.923-201.984-112.469-271.531s-165.461-112.469-271.531-112.469-201.984 42.923-271.531 112.469-112.469 165.461-112.469 271.531 42.923 201.984 112.469 271.531 165.461 112.469 271.531 112.469 201.984-42.923 271.531-112.469 112.469-165.461 112.469-271.531zM469.333 704v-256c0-16.597 9.472-31.019 23.595-38.144l170.667-85.333c21.077-10.539 46.72-2.005 57.259 19.072s2.005 46.72-19.072 57.259l-147.115 73.515v229.632c0 23.552-19.115 42.667-42.667 42.667s-42.667-19.115-42.667-42.667z" />
<glyph unicode="&#xe932;" glyph-name="edit" d="M469.333 832h-298.667c-35.328 0-67.413-14.379-90.496-37.504s-37.504-55.168-37.504-90.496v-597.333c0-35.328 14.379-67.413 37.504-90.496s55.168-37.504 90.496-37.504h597.333c35.328 0 67.413 14.379 90.496 37.504s37.504 55.168 37.504 90.496v298.667c0 23.552-19.115 42.667-42.667 42.667s-42.667-19.115-42.667-42.667v-298.667c0-11.776-4.736-22.4-12.501-30.165s-18.389-12.501-30.165-12.501h-597.333c-11.776 0-22.4 4.736-30.165 12.501s-12.501 18.389-12.501 30.165v597.333c0 11.776 4.736 22.4 12.501 30.165s18.389 12.501 30.165 12.501h298.667c23.552 0 42.667 19.115 42.667 42.667s-19.115 42.667-42.667 42.667zM759.168 883.499l-405.333-405.333c-5.205-5.163-9.259-11.947-11.221-19.84l-42.667-170.667c-1.664-6.4-1.792-13.568 0-20.693 5.717-22.869 28.885-36.779 51.755-31.061l170.667 42.667c7.125 1.749 14.080 5.504 19.84 11.221l405.333 405.333c25.984 25.984 38.997 60.16 38.997 94.165s-13.013 68.181-38.997 94.165-60.203 39.040-94.208 39.040-68.181-13.013-94.165-38.997zM819.499 823.168c9.344 9.344 21.504 13.995 33.835 13.995s24.491-4.651 33.835-13.995 13.995-21.504 13.995-33.835-4.651-24.491-13.995-33.835l-396.971-396.971-90.197-22.571 22.571 90.197z" />
<glyph unicode="&#xe933;" glyph-name="eye1" d="M4.523 467.072c-5.803-11.691-6.229-25.728 0-38.144 0 0 16.896-33.664 47.787-78.635 19.243-27.989 44.288-61.099 74.965-94.635 38.144-41.771 85.504-84.779 141.611-119.467 68.053-42.069 149.589-72.192 243.115-72.192s175.061 30.123 243.115 72.192c56.107 34.688 103.467 77.696 141.611 119.467 30.635 33.536 55.723 66.645 74.965 94.635 30.891 44.971 47.787 78.635 47.787 78.635 5.803 11.691 6.229 25.728 0 38.144 0 0-16.896 33.664-47.787 78.635-19.243 27.989-44.288 61.099-74.965 94.635-38.144 41.771-85.504 84.779-141.611 119.467-68.053 42.069-149.589 72.192-243.115 72.192s-175.061-30.123-243.115-72.192c-56.107-34.688-103.467-77.696-141.611-119.467-30.677-33.536-55.723-66.603-74.965-94.635-30.891-44.971-47.787-78.635-47.787-78.635zM91.307 448c6.955 11.989 17.365 29.056 31.317 49.408 17.493 25.429 40.107 55.296 67.627 85.376 34.347 37.589 75.733 74.923 123.477 104.448 57.6 35.584 123.776 59.435 198.272 59.435s140.672-23.851 198.229-59.435c47.744-29.525 89.131-66.859 123.477-104.448 27.477-30.080 50.133-59.947 67.627-85.376 13.995-20.352 24.405-37.376 31.317-49.408-6.955-11.989-17.365-29.056-31.317-49.408-17.493-25.429-40.107-55.296-67.627-85.376-34.347-37.589-75.733-74.923-123.477-104.448-57.557-35.584-123.733-59.435-198.229-59.435s-140.672 23.851-198.229 59.435c-47.744 29.525-89.131 66.859-123.477 104.448-27.477 30.080-50.133 59.947-67.627 85.376-13.995 20.352-24.405 37.419-31.36 49.408zM682.667 448c0 47.104-19.157 89.856-50.005 120.661s-73.557 50.005-120.661 50.005-89.856-19.157-120.661-50.005-50.005-73.557-50.005-120.661 19.157-89.856 50.005-120.661 73.557-50.005 120.661-50.005 89.856 19.157 120.661 50.005 50.005 73.557 50.005 120.661zM597.333 448c0-23.595-9.515-44.843-25.003-60.331s-36.736-25.003-60.331-25.003-44.843 9.515-60.331 25.003-25.003 36.736-25.003 60.331 9.515 44.843 25.003 60.331 36.736 25.003 60.331 25.003 44.843-9.515 60.331-25.003 25.003-36.736 25.003-60.331z" />
<glyph unicode="&#xe934;" glyph-name="eye-off" d="M432.128 737.536c27.776 6.485 55.296 9.429 79.36 9.131 75.008 0 141.184-23.851 198.741-59.435 47.744-29.525 89.131-66.859 123.477-104.448 27.477-30.080 50.133-59.947 67.627-85.376 13.952-20.267 24.32-37.291 31.275-49.28-23.296-40.661-49.493-77.696-75.861-108.459-15.317-17.877-13.269-44.843 4.608-60.16s44.843-13.269 60.16 4.608c34.901 40.704 68.736 90.112 97.408 143.787 6.315 11.904 6.955 26.368 0.555 39.211 0 0-16.896 33.664-47.787 78.635-19.243 27.989-44.288 61.099-74.965 94.635-38.144 41.771-85.504 84.779-141.611 119.467-68.053 42.027-149.589 72.149-242.603 72.149-31.317 0.384-65.707-3.371-99.84-11.349-22.955-5.376-37.205-28.331-31.829-51.285s28.331-37.205 51.285-31.829zM427.819 471.808l107.989-107.989c-7.765-2.603-15.872-4.011-24.021-4.309-21.888-0.768-43.947 6.784-61.184 22.869s-26.325 37.547-27.093 59.435c-0.341 10.155 1.067 20.309 4.309 30.037zM255.275 644.395l108.928-108.928c-18.517-29.483-27.136-63.317-25.941-96.683 1.536-43.605 19.755-86.741 54.229-118.827s78.763-47.232 122.368-45.696c29.525 1.024 58.837 9.728 84.651 25.941l99.072-99.072c-58.795-34.091-123.52-51.029-187.051-51.797-73.984 0-140.16 23.851-197.717 59.435-47.744 29.525-89.131 66.859-123.477 104.448-27.477 30.080-50.133 59.947-67.627 85.376-13.909 20.267-24.32 37.248-31.232 49.237 44.8 77.739 101.376 144.171 163.883 196.565zM12.501 887.168l182.229-182.229c-73.856-63.104-139.477-143.275-189.653-236.757-6.315-11.904-6.997-26.411-0.555-39.253 0 0 16.896-33.664 47.787-78.635 19.243-27.989 44.288-61.099 74.965-94.635 38.144-41.771 85.504-84.779 141.611-119.467 68.053-42.069 149.589-72.192 243.627-72.192 85.035 1.024 171.477 25.643 248.107 75.051l190.549-190.549c16.683-16.683 43.691-16.683 60.331 0s16.683 43.691 0 60.331l-378.709 378.709c-0.085 0.085-0.213 0.213-0.299 0.299l-179.584 179.627c-0.341 0.299-0.683 0.683-1.024 1.024l-379.051 379.008c-16.683 16.683-43.691 16.683-60.331 0s-16.683-43.691 0-60.331z" />
<glyph unicode="&#xe935;" glyph-name="file-text" d="M750.336 661.333h-110.336v110.336zM883.499 648.832l-256 256c-3.925 3.925-8.619 7.083-13.824 9.259s-10.795 3.243-16.341 3.243h-341.333c-35.328 0-67.413-14.379-90.496-37.504s-37.504-55.168-37.504-90.496v-682.667c0-35.328 14.379-67.413 37.504-90.496s55.168-37.504 90.496-37.504h512c35.328 0 67.413 14.379 90.496 37.504s37.504 55.168 37.504 90.496v512c0 11.776-4.779 22.443-12.501 30.165zM554.667 832v-213.333c0-23.552 19.115-42.667 42.667-42.667h213.333v-469.333c0-11.776-4.736-22.4-12.501-30.165s-18.389-12.501-30.165-12.501h-512c-11.776 0-22.4 4.736-30.165 12.501s-12.501 18.389-12.501 30.165v682.667c0 11.776 4.736 22.4 12.501 30.165s18.389 12.501 30.165 12.501zM682.667 448h-341.333c-23.552 0-42.667-19.115-42.667-42.667s19.115-42.667 42.667-42.667h341.333c23.552 0 42.667 19.115 42.667 42.667s-19.115 42.667-42.667 42.667zM682.667 277.333h-341.333c-23.552 0-42.667-19.115-42.667-42.667s19.115-42.667 42.667-42.667h341.333c23.552 0 42.667 19.115 42.667 42.667s-19.115 42.667-42.667 42.667zM426.667 618.667h-85.333c-23.552 0-42.667-19.115-42.667-42.667s19.115-42.667 42.667-42.667h85.333c23.552 0 42.667 19.115 42.667 42.667s-19.115 42.667-42.667 42.667z" />
<glyph unicode="&#xe936;" glyph-name="filter" d="M846.72 789.333l-281.984-333.397c-6.272-7.381-10.069-17.024-10.069-27.563v-295.339l-85.333 42.667v252.672c0.043 9.685-3.285 19.499-10.069 27.563l-281.984 333.397zM938.667 874.667h-853.333c-23.552 0-42.667-19.115-42.667-42.667 0-10.539 3.797-20.181 10.069-27.563l331.264-391.68v-263.424c0-16.597 9.472-31.019 23.595-38.144l170.667-85.333c21.077-10.539 46.72-2.005 57.259 19.072 3.072 6.229 4.523 12.843 4.48 19.072v348.757l331.264 391.68c15.232 18.005 12.971 44.928-5.035 60.117-8.064 6.827-17.877 10.155-27.563 10.112z" />
<glyph unicode="&#xe937;" glyph-name="flag" d="M213.333 388.395v420.651c18.773 9.301 58.24 22.955 128 22.955 54.656 0 100.736-17.963 154.837-39.595 52.565-21.035 113.152-45.739 186.496-45.739 55.381 0 97.195 7.467 128 16.939v-420.651c-18.773-9.301-58.24-22.955-128-22.955-54.656 0-100.736 17.963-154.837 39.595-52.565 21.035-113.152 45.739-186.496 45.739-55.381 0-97.195-7.467-128-16.939zM213.333 21.333v275.712c18.773 9.301 58.24 22.955 128 22.955 54.656 0 100.736-17.963 154.837-39.595 52.565-21.035 113.152-45.739 186.496-45.739 138.539 0 192.299 46.635 200.832 55.168 8.32 8.32 12.501 19.243 12.501 30.165v512c0 23.552-19.115 42.667-42.667 42.667-11.307 0-21.589-4.395-29.227-11.605-4.096-3.328-41.984-31.061-141.44-31.061-54.656 0-100.736 17.963-154.837 39.595-52.565 21.035-113.152 45.739-186.496 45.739-138.539 0-192.299-46.635-200.832-55.168-8.32-8.32-12.501-19.243-12.501-30.165v-810.667c0-23.552 19.115-42.667 42.667-42.667s42.667 19.115 42.667 42.667z" />
<glyph unicode="&#xe938;" glyph-name="heart1" d="M859.008 733.141c37.547-37.589 56.277-86.656 56.277-135.851s-18.773-98.261-56.277-135.765l-347.008-347.008-347.008 347.008c-37.504 37.504-56.235 86.571-56.235 135.808s18.731 98.304 56.235 135.808 86.571 56.235 135.808 56.235 98.304-18.731 135.808-56.235l45.227-45.227c16.683-16.683 43.691-16.683 60.331 0l45.312 45.312c37.504 37.504 86.571 56.235 135.765 56.192s98.261-18.773 135.765-56.277zM919.339 793.472c-54.144 54.144-125.184 81.237-196.096 81.28s-141.952-27.051-196.139-81.195l-15.104-15.147-15.061 15.061c-54.144 54.144-125.227 81.237-196.139 81.237s-141.995-27.093-196.139-81.237-81.237-125.227-81.237-196.139 27.093-141.995 81.237-196.139l377.173-377.173c16.683-16.683 43.691-16.683 60.331 0l377.173 377.173c54.144 54.144 81.237 125.184 81.28 196.096s-27.051 141.952-81.28 196.181z" />
<glyph unicode="&#xe939;" glyph-name="help-circle" d="M981.333 448c0 129.579-52.565 246.997-137.472 331.861s-202.283 137.472-331.861 137.472-246.997-52.565-331.861-137.472-137.472-202.283-137.472-331.861 52.565-246.997 137.472-331.861 202.283-137.472 331.861-137.472 246.997 52.565 331.861 137.472 137.472 202.283 137.472 331.861zM896 448c0-106.069-42.923-201.984-112.469-271.531s-165.461-112.469-271.531-112.469-201.984 42.923-271.531 112.469-112.469 165.461-112.469 271.531 42.923 201.984 112.469 271.531 165.461 112.469 271.531 112.469 201.984-42.923 271.531-112.469 112.469-165.461 112.469-271.531zM428.075 561.835c7.808 22.229 23.851 39.168 43.605 48.64s42.965 11.392 65.195 3.541c19.541-6.869 34.944-20.053 44.8-36.651 7.808-13.099 12.117-28.373 12.203-44.245 0-6.613-1.664-13.184-4.992-19.797-3.413-6.827-8.661-13.867-15.701-20.907-30.251-30.251-78.123-46.592-78.123-46.592-22.357-7.467-34.432-31.616-26.965-53.973s31.616-34.432 53.973-26.965c0 0 65.877 21.589 111.488 67.2 11.904 11.904 23.253 26.197 31.701 43.093 8.533 17.067 13.995 36.608 13.995 58.411-0.171 31.189-8.704 61.312-24.192 87.424-19.755 33.195-50.773 59.819-89.813 73.557-44.459 15.616-91.093 11.733-130.432-7.125s-71.595-52.821-87.211-97.28c-7.851-22.229 3.84-46.592 26.069-54.4s46.592 3.883 54.4 26.069zM512 192c23.552 0 42.667 19.115 42.667 42.667s-19.115 42.667-42.667 42.667-42.667-19.115-42.667-42.667 19.115-42.667 42.667-42.667z" />
<glyph unicode="&#xe93a;" glyph-name="info" d="M981.333 448c0 129.579-52.565 246.997-137.472 331.861s-202.283 137.472-331.861 137.472-246.997-52.565-331.861-137.472-137.472-202.283-137.472-331.861 52.565-246.997 137.472-331.861 202.283-137.472 331.861-137.472 246.997 52.565 331.861 137.472 137.472 202.283 137.472 331.861zM896 448c0-106.069-42.923-201.984-112.469-271.531s-165.461-112.469-271.531-112.469-201.984 42.923-271.531 112.469-112.469 165.461-112.469 271.531 42.923 201.984 112.469 271.531 165.461 112.469 271.531 112.469 201.984-42.923 271.531-112.469 112.469-165.461 112.469-271.531zM554.667 277.333v170.667c0 23.552-19.115 42.667-42.667 42.667s-42.667-19.115-42.667-42.667v-170.667c0-23.552 19.115-42.667 42.667-42.667s42.667 19.115 42.667 42.667zM512 576c23.552 0 42.667 19.115 42.667 42.667s-19.115 42.667-42.667 42.667-42.667-19.115-42.667-42.667 19.115-42.667 42.667-42.667z" />
<glyph unicode="&#xe93b;" glyph-name="link1" d="M392.491 379.776c42.325-56.619 103.68-90.709 168.448-100.053s133.248 6.059 189.867 48.384c10.197 7.637 19.84 16 27.947 24.235l127.787 127.787c49.621 51.371 73.472 117.376 72.363 182.827s-27.264 130.603-78.123 179.669c-50.005 48.299-114.688 72.192-179.157 71.808-63.659-0.341-127.317-24.363-176.512-71.808l-73.856-73.429c-16.725-16.597-16.811-43.648-0.171-60.331s43.648-16.811 60.331-0.171l72.917 72.491c32.853 31.659 75.221 47.659 117.76 47.915 43.051 0.256 86.016-15.659 119.381-47.872 33.92-32.768 51.328-76.075 52.096-119.808s-15.147-87.637-47.36-121.003l-128.213-128.213c-4.864-4.949-11.221-10.539-18.261-15.787-37.76-28.245-83.285-38.485-126.592-32.256s-84.096 28.928-112.299 66.688c-14.123 18.859-40.832 22.741-59.733 8.619s-22.741-40.832-8.619-59.733zM631.509 516.224c-42.325 56.619-103.68 90.709-168.448 100.053s-133.291-6.059-189.909-48.384c-10.197-7.637-19.797-16-27.947-24.235l-127.787-127.787c-49.621-51.371-73.472-117.376-72.363-182.827s27.264-130.603 78.123-179.669c50.005-48.299 114.688-72.192 179.157-71.808 63.659 0.341 127.317 24.363 176.512 71.808l73.515 73.515c16.683 16.683 16.683 43.691 0 60.331s-43.691 16.683-60.331 0l-72.363-72.448c-32.853-31.659-75.221-47.659-117.76-47.915-43.051-0.256-86.016 15.659-119.381 47.872-33.92 32.768-51.328 76.075-52.096 119.808s15.147 87.637 47.36 121.003l128.213 128.213c4.864 4.949 11.221 10.539 18.261 15.787 37.76 28.245 83.285 38.485 126.592 32.256s84.096-28.928 112.299-66.688c14.123-18.859 40.832-22.741 59.733-8.619s22.741 40.832 8.619 59.733z" />
<glyph unicode="&#xe93c;" glyph-name="lock" d="M213.333 448h597.333c11.776 0 22.4-4.736 30.165-12.501s12.501-18.389 12.501-30.165v-298.667c0-11.776-4.736-22.4-12.501-30.165s-18.389-12.501-30.165-12.501h-597.333c-11.776 0-22.4 4.736-30.165 12.501s-12.501 18.389-12.501 30.165v298.667c0 11.776 4.736 22.4 12.501 30.165s18.389 12.501 30.165 12.501zM768 533.333v128c0 70.699-28.715 134.741-74.965 181.035s-110.336 74.965-181.035 74.965-134.741-28.715-181.035-74.965-74.965-110.336-74.965-181.035v-128h-42.667c-35.328 0-67.413-14.379-90.496-37.504s-37.504-55.168-37.504-90.496v-298.667c0-35.328 14.379-67.413 37.504-90.496s55.168-37.504 90.496-37.504h597.333c35.328 0 67.413 14.379 90.496 37.504s37.504 55.168 37.504 90.496v298.667c0 35.328-14.379 67.413-37.504 90.496s-55.168 37.504-90.496 37.504zM341.333 533.333v128c0 47.147 19.072 89.728 50.005 120.661s73.515 50.005 120.661 50.005 89.728-19.072 120.661-50.005 50.005-73.515 50.005-120.661v-128z" />
<glyph unicode="&#xe93d;" glyph-name="mail" d="M128 622.037l359.552-251.691c14.507-10.027 33.92-10.496 48.939 0l359.509 251.691v-430.037c0-11.605-4.693-22.229-12.587-30.080s-18.475-12.587-30.080-12.587h-682.667c-11.605 0-22.229 4.693-30.080 12.587s-12.587 18.475-12.587 30.080zM42.667 704.725c0-0.427 0-0.853 0-1.28v-511.445c0-35.328 14.507-67.371 37.547-90.453s55.125-37.547 90.453-37.547h682.667c35.328 0 67.371 14.507 90.453 37.547s37.547 55.125 37.547 90.453v511.488c0 0.427 0 0.853 0 1.28-0.213 35.029-14.635 66.773-37.547 89.685-23.083 23.040-55.125 37.547-90.453 37.547h-682.667c-35.328 0-67.371-14.507-90.453-37.547-22.912-22.912-37.333-54.656-37.547-89.728zM891.477 723.029l-379.477-265.6-379.477 265.6c2.048 4.096 4.779 7.808 8.021 11.051 7.893 7.893 18.517 12.587 30.123 12.587h682.667c11.605 0 22.229-4.693 30.080-12.587 3.243-3.243 5.973-6.997 8.021-11.051z" />
<glyph unicode="&#xe93e;" glyph-name="map-pin" d="M938.667 533.333c0 117.803-47.787 224.555-124.971 301.696s-183.893 124.971-301.696 124.971-224.555-47.787-301.696-124.971-124.971-183.893-124.971-301.696c0-24.277 2.261-48.128 6.4-71.509 11.691-66.048 38.357-128.171 71.765-184.32 116.565-195.883 324.821-334.336 324.821-334.336 14.123-9.259 32.64-9.771 47.317 0 0 0 208.299 138.453 324.821 334.336 33.408 56.149 60.075 118.272 71.765 184.32 4.181 23.381 6.443 47.232 6.443 71.509zM853.333 533.333c0-18.944-1.749-37.845-5.077-56.661-9.429-53.333-31.445-105.728-61.099-155.563-81.579-137.131-214.869-245.205-271.744-287.573-59.648 39.083-195.755 148.352-278.613 287.573-29.653 49.835-51.669 102.229-61.099 155.563-3.285 18.816-5.035 37.717-5.035 56.661 0 94.251 38.144 179.541 99.968 241.365s147.115 99.968 241.365 99.968 179.541-38.144 241.365-99.968 99.968-147.115 99.968-241.365zM682.667 533.333c0 47.104-19.157 89.856-50.005 120.661s-73.557 50.005-120.661 50.005-89.856-19.157-120.661-50.005-50.005-73.557-50.005-120.661 19.157-89.856 50.005-120.661 73.557-50.005 120.661-50.005 89.856 19.157 120.661 50.005 50.005 73.557 50.005 120.661zM597.333 533.333c0-23.595-9.515-44.843-25.003-60.331s-36.736-25.003-60.331-25.003-44.843 9.515-60.331 25.003-25.003 36.736-25.003 60.331 9.515 44.843 25.003 60.331 36.736 25.003 60.331 25.003 44.843-9.515 60.331-25.003 25.003-36.736 25.003-60.331z" />
<glyph unicode="&#xe93f;" glyph-name="message-circle" d="M938.667 469.461v21.205c0 0.725-0.043 1.621-0.085 2.475-5.803 99.755-47.488 190.336-112.725 258.176-68.352 71.125-162.731 117.419-268.843 123.264-0.683 0.043-1.536 0.085-2.347 0.085h-20.864c-59.947 0.683-122.965-13.227-181.931-43.008-52.181-26.496-97.749-63.488-133.931-108.16-56.405-69.717-89.899-158.080-89.941-253.696-0.597-54.4 10.795-111.36 35.157-165.419l-75.605-226.859c-2.816-8.363-3.072-17.835 0-26.965 7.467-22.357 31.616-34.432 53.973-26.965l226.731 75.563c49.493-22.485 105.984-35.243 165.376-35.115 58.539 0.384 115.797 13.141 168.149 36.949 81.579 37.163 151.040 101.248 193.749 186.667 27.477 53.291 43.307 115.84 43.136 181.803zM853.333 469.205c0.128-52.267-12.459-101.333-33.664-142.464-34.176-68.352-88.832-118.827-153.259-148.139-41.387-18.859-86.827-28.971-133.376-29.269-52.096-0.128-101.163 12.459-142.293 33.664-10.624 5.504-22.528 6.059-33.067 2.56l-162.261-54.101 54.101 162.261c3.755 11.221 2.56 22.912-2.389 32.725-23.552 46.677-34.304 96.171-33.792 142.421 0.043 76.331 26.411 145.92 70.955 200.917 28.629 35.371 64.768 64.725 106.24 85.76 46.592 23.552 96.085 34.304 142.336 33.792h19.456c83.712-4.565 158.037-41.003 212.011-97.152 51.285-53.376 84.139-124.416 89.003-202.795z" />
<glyph unicode="&#xe940;" glyph-name="message-square" d="M938.667 320v426.667c0 35.328-14.379 67.413-37.504 90.496s-55.168 37.504-90.496 37.504h-597.333c-35.328 0-67.413-14.379-90.496-37.504s-37.504-55.168-37.504-90.496v-682.667c0-10.923 4.181-21.845 12.501-30.165 16.683-16.683 43.691-16.683 60.331 0l158.165 158.165h494.336c35.328 0 67.413 14.379 90.496 37.504s37.504 55.168 37.504 90.496zM853.333 320c0-11.776-4.736-22.4-12.501-30.165s-18.389-12.501-30.165-12.501h-512c-11.776 0-22.443-4.779-30.165-12.501l-97.835-97.835v579.669c0 11.776 4.736 22.4 12.501 30.165s18.389 12.501 30.165 12.501h597.333c11.776 0 22.4-4.736 30.165-12.501s12.501-18.389 12.501-30.165z" />
<glyph unicode="&#xe941;" glyph-name="move" d="M469.333 771.669v-281.003h-281.003l55.168 55.168c16.683 16.683 16.683 43.691 0 60.331s-43.691 16.683-60.331 0l-128-128c-7.723-7.723-12.501-18.389-12.501-30.165 0-5.803 1.152-11.307 3.243-16.341s5.163-9.728 9.259-13.824l128-128c16.683-16.683 43.691-16.683 60.331 0s16.683 43.691 0 60.331l-55.168 55.168h281.003v-281.003l-55.168 55.168c-16.683 16.683-43.691 16.683-60.331 0s-16.683-43.691 0-60.331l128-128c4.096-4.096 8.789-7.168 13.824-9.259s10.539-3.243 16.341-3.243c5.547 0 11.136 1.067 16.341 3.243 5.035 2.091 9.728 5.163 13.824 9.259l128 128c16.683 16.683 16.683 43.691 0 60.331s-43.691 16.683-60.331 0l-55.168-55.168v281.003h281.003l-55.168-55.168c-16.683-16.683-16.683-43.691 0-60.331s43.691-16.683 60.331 0l128 128c4.096 4.096 7.168 8.789 9.259 13.824 6.4 15.445 3.328 33.92-9.259 46.507l-128 128c-16.683 16.683-43.691 16.683-60.331 0s-16.683-43.691 0-60.331l55.168-55.168h-281.003v281.003l55.168-55.168c16.683-16.683 43.691-16.683 60.331 0s16.683 43.691 0 60.331l-128 128c-3.925 3.925-8.619 7.083-13.824 9.259-10.453 4.309-22.229 4.309-32.683 0-5.035-2.091-9.728-5.163-13.824-9.259l-128-128c-16.683-16.683-16.683-43.691 0-60.331s43.691-16.683 60.331 0z" />
<glyph unicode="&#xe942;" glyph-name="paperclip" d="M884.608 518.699l-392.107-392.107c-41.685-41.685-96.256-62.507-150.955-62.507s-109.269 20.821-150.955 62.507-62.507 96.256-62.507 150.955 20.821 109.269 62.507 150.955l392.107 392.107c25.003 25.003 57.728 37.504 90.581 37.504s65.536-12.501 90.581-37.504 37.504-57.728 37.504-90.581-12.501-65.536-37.504-90.581l-392.533-392.107c-8.363-8.363-19.243-12.544-30.208-12.544s-21.845 4.181-30.208 12.501-12.501 19.2-12.501 30.208 4.181 21.845 12.501 30.208l362.24 361.813c16.683 16.64 16.683 43.648 0.043 60.331s-43.648 16.683-60.331 0.043l-362.24-361.813c-25.003-25.003-37.504-57.856-37.504-90.539s12.501-65.536 37.504-90.539 57.856-37.504 90.539-37.504 65.536 12.501 90.539 37.504l392.533 392.107c41.685 41.685 62.507 96.341 62.507 150.912s-20.864 109.269-62.507 150.912-96.341 62.507-150.912 62.507-109.269-20.864-150.912-62.507l-392.107-392.107c-58.325-58.325-87.509-134.869-87.509-211.285s29.184-152.96 87.509-211.285 134.869-87.509 211.285-87.509 152.96 29.184 211.285 87.509l392.107 392.107c16.683 16.683 16.683 43.691 0 60.331s-43.691 16.683-60.331 0z" />
<glyph unicode="&#xe943;" glyph-name="phone" d="M981.333 238.080c0.683 30.464-10.069 59.904-28.715 82.901-19.627 24.149-48.171 41.259-82.133 46.080-34.133 4.181-72.32 13.397-110.336 27.563-18.475 6.784-38.101 9.301-57.344 7.424-28.288-2.731-55.765-14.891-77.611-36.48l-30.72-30.72c-75.52 47.659-143.36 113.792-195.541 195.797l30.976 30.976c13.739 14.080 24.021 30.976 30.165 49.323 9.045 26.965 9.131 57.003-1.664 85.803-12.331 32.128-22.101 70.144-27.477 110.72-4.437 30.464-19.456 57.387-41.088 76.971-22.997 20.736-53.589 33.237-86.485 32.896h-127.829c-3.755 0-7.765-0.171-11.648-0.512-35.157-3.2-65.792-20.395-86.741-45.483s-32.341-58.325-29.141-93.824c12.8-131.243 58.24-266.368 137.216-388.352 64.085-102.955 155.648-197.248 268.715-269.056 109.568-72.405 242.517-122.112 387.669-137.856 3.925-0.384 8.149-0.555 12.288-0.555 35.328 0.128 67.328 14.635 90.368 37.845s37.248 55.339 37.12 90.496zM896 238.080v-128c0.043-11.947-4.651-22.613-12.373-30.379s-18.304-12.587-30.123-12.629c-134.357 14.336-254.336 59.349-352.555 124.245-103.595 65.835-185.984 150.912-243.285 242.944-72.405 111.787-113.28 233.856-124.757 351.488-1.024 11.435 2.731 22.443 9.771 30.891s17.195 14.080 28.928 15.147l131.755 0.213c11.563 0.128 21.632-4.011 29.312-10.923 7.253-6.571 12.288-15.616 13.781-25.941 6.059-45.739 17.408-90.325 32.299-129.067 3.456-9.216 3.413-19.072 0.427-28.075-2.091-6.187-5.589-11.989-10.325-16.853l-53.845-53.803c-13.824-13.824-16.171-34.731-6.912-51.243 67.584-118.827 163.797-211.499 272.256-272.128 16.939-9.472 37.632-6.144 50.987 7.083l54.187 54.187c7.083 6.997 16.085 10.965 25.515 11.904 6.485 0.64 13.227-0.213 19.584-2.56 43.605-16.256 88.32-27.136 129.451-32.171 10.283-1.451 19.712-7.083 26.24-15.147 6.272-7.723 9.856-17.579 9.643-29.099z" />
<glyph unicode="&#xe944;" glyph-name="phone-call" d="M633.984 704.811c40.235-7.851 74.24-29.141 98.56-58.624 17.92-21.76 30.549-47.957 36.352-76.501 4.651-23.083 27.179-38.016 50.261-33.365s38.016 27.179 33.365 50.261c-8.533 42.325-27.307 81.365-54.144 113.877-36.437 44.203-87.765 76.331-148.053 88.064-23.125 4.523-45.525-10.581-50.048-33.707s10.581-45.525 33.707-50.048zM637.44 874.923c85.333-9.472 159.701-49.579 213.547-108.544 47.701-52.224 79.275-119.211 87.979-192.811 2.773-23.381 23.979-40.149 47.36-37.376s40.149 23.979 37.376 47.36c-10.795 91.605-50.176 175.189-109.696 240.384-67.328 73.728-160.512 123.989-267.136 135.808-23.424 2.603-44.501-14.293-47.104-37.675s14.293-44.501 37.675-47.104zM981.333 238.080c0.683 30.464-10.069 59.904-28.715 82.901-19.627 24.149-48.171 41.259-82.133 46.080-34.133 4.181-72.32 13.397-110.336 27.563-18.475 6.784-38.101 9.301-57.344 7.424-28.288-2.731-55.765-14.891-77.611-36.48l-30.72-30.72c-75.52 47.659-143.36 113.792-195.541 195.797l30.976 30.976c13.739 14.080 24.021 30.976 30.165 49.323 9.045 26.965 9.131 57.003-1.664 85.803-12.331 32.128-22.101 70.144-27.477 110.72-4.437 30.464-19.456 57.387-41.088 76.971-22.997 20.736-53.589 33.237-86.485 32.896h-127.829c-3.755 0-7.765-0.171-11.648-0.512-35.157-3.2-65.792-20.395-86.741-45.483s-32.341-58.325-29.141-93.824c12.8-131.243 58.24-266.368 137.216-388.352 64.085-102.955 155.648-197.248 268.715-269.056 109.568-72.405 242.517-122.112 387.669-137.856 3.925-0.384 8.149-0.555 12.288-0.555 35.328 0.128 67.328 14.635 90.368 37.845s37.248 55.339 37.12 90.496zM896 238.080v-128c0.043-11.947-4.651-22.613-12.373-30.379s-18.304-12.587-30.123-12.629c-134.357 14.336-254.336 59.349-352.555 124.245-103.595 65.835-185.984 150.912-243.285 242.944-72.405 111.787-113.28 233.856-124.757 351.488-1.024 11.435 2.731 22.443 9.771 30.891s17.195 14.080 28.928 15.147l131.755 0.213c11.563 0.128 21.632-4.011 29.312-10.923 7.253-6.571 12.288-15.616 13.781-25.941 6.059-45.739 17.408-90.325 32.299-129.067 3.456-9.216 3.413-19.072 0.427-28.075-2.091-6.187-5.589-11.989-10.325-16.853l-53.845-53.803c-13.824-13.824-16.171-34.731-6.912-51.243 67.584-118.827 163.797-211.499 272.256-272.128 16.939-9.472 37.632-6.144 50.987 7.083l54.187 54.187c7.083 6.997 16.085 10.965 25.515 11.904 6.485 0.64 13.227-0.213 19.584-2.56 43.605-16.256 88.32-27.136 129.451-32.171 10.283-1.451 19.712-7.083 26.24-15.147 6.272-7.723 9.856-17.579 9.643-29.099z" />
<glyph unicode="&#xe945;" glyph-name="play1" d="M236.416 867.883c-6.528 4.267-14.507 6.784-23.083 6.784-23.552 0-42.667-19.115-42.667-42.667v-768c-0.043-7.765 2.133-15.872 6.784-23.083 12.757-19.84 39.125-25.557 58.965-12.8l597.333 384c4.864 3.072 9.344 7.424 12.8 12.8 12.757 19.84 6.997 46.208-12.8 58.965zM256 753.835l475.776-305.835-475.776-305.835z" />
<glyph unicode="&#xe946;" glyph-name="plus" d="M213.333 405.333h256v-256c0-23.552 19.115-42.667 42.667-42.667s42.667 19.115 42.667 42.667v256h256c23.552 0 42.667 19.115 42.667 42.667s-19.115 42.667-42.667 42.667h-256v256c0 23.552-19.115 42.667-42.667 42.667s-42.667-19.115-42.667-42.667v-256h-256c-23.552 0-42.667-19.115-42.667-42.667s19.115-42.667 42.667-42.667z" />
<glyph unicode="&#xe947;" glyph-name="settings" d="M682.667 448c0 47.104-19.157 89.856-50.005 120.661s-73.557 50.005-120.661 50.005-89.856-19.157-120.661-50.005-50.005-73.557-50.005-120.661 19.157-89.856 50.005-120.661 73.557-50.005 120.661-50.005 89.856 19.157 120.661 50.005 50.005 73.557 50.005 120.661zM597.333 448c0-23.595-9.515-44.843-25.003-60.331s-36.736-25.003-60.331-25.003-44.843 9.515-60.331 25.003-25.003 36.736-25.003 60.331 9.515 44.843 25.003 60.331 36.736 25.003 60.331 25.003 44.843-9.515 60.331-25.003 25.003-36.736 25.003-60.331zM866.773 302.763c1.963 4.48 4.779 8.149 8.192 10.965 4.779 3.925 10.709 6.229 17.195 6.272h3.84c35.328 0 67.413 14.379 90.496 37.504s37.504 55.168 37.504 90.496-14.379 67.413-37.504 90.496-55.168 37.504-90.496 37.504h-6.784c-4.693 0.043-9.173 1.195-13.141 3.243-5.419 2.816-9.813 7.339-12.459 13.312-0.128 1.237-0.171 2.517-0.171 3.797-1.024 2.347-1.707 4.736-2.091 7.168 0.853 14.251 3.285 19.371 7.168 23.339l2.645 2.645c24.96 25.003 37.461 57.856 37.419 90.539s-12.544 65.536-37.589 90.539c-25.003 24.96-57.856 37.461-90.539 37.419s-65.536-12.544-90.453-37.504l-1.963-1.963c-3.541-3.413-7.808-5.803-12.288-7.083-5.973-1.664-12.416-1.365-18.688 1.408-4.309 1.877-7.979 4.693-10.795 8.107-3.925 4.779-6.229 10.709-6.272 17.195v3.84c0 35.328-14.379 67.413-37.504 90.496s-55.168 37.504-90.496 37.504-67.413-14.379-90.496-37.504-37.504-55.168-37.504-90.496v-6.784c-0.043-4.693-1.195-9.173-3.243-13.141-2.816-5.419-7.339-9.813-13.312-12.459-1.237-0.128-2.517-0.171-3.797-0.171-2.347-1.024-4.736-1.707-7.168-2.091-14.293 0.896-19.413 3.328-23.381 7.211l-2.645 2.645c-25.003 24.96-57.813 37.461-90.539 37.461s-65.493-12.544-90.539-37.632c-24.96-25.003-37.461-57.813-37.461-90.539s12.544-65.536 37.504-90.453l2.048-2.005c3.413-3.541 5.803-7.808 7.083-12.288 1.664-5.973 1.365-12.416-1.323-18.517-0.256-0.683-0.555-1.451-0.896-2.219-1.749-4.651-4.608-8.661-8.149-11.733-4.693-4.053-10.667-6.528-16.341-6.656h-3.84c-35.328 0-67.413-14.379-90.496-37.504s-37.504-55.211-37.504-90.539 14.379-67.413 37.504-90.496 55.168-37.504 90.496-37.504h6.784c4.693-0.043 9.173-1.195 13.141-3.243 5.461-2.859 9.941-7.424 12.629-13.696 1.024-2.347 1.707-4.736 2.091-7.168-0.853-14.251-3.285-19.371-7.168-23.339l-2.645-2.645c-24.96-25.003-37.461-57.856-37.419-90.539s12.544-65.536 37.589-90.539c25.003-24.96 57.856-37.461 90.539-37.419s65.536 12.544 90.453 37.504l2.005 2.048c3.541 3.413 7.808 5.803 12.288 7.083 5.973 1.664 12.416 1.365 18.517-1.323 0.683-0.256 1.451-0.555 2.219-0.896 4.651-1.749 8.661-4.608 11.733-8.149 4.053-4.693 6.528-10.667 6.656-16.341v-3.925c0-35.328 14.379-67.413 37.504-90.496s55.168-37.504 90.496-37.504 67.413 14.379 90.496 37.504 37.504 55.168 37.504 90.496v6.784c0.043 4.693 1.195 9.173 3.243 13.141 2.859 5.461 7.424 9.941 13.696 12.629 2.347 1.024 4.736 1.707 7.168 2.091 14.251-0.853 19.371-3.285 23.339-7.168l2.645-2.645c25.003-24.96 57.856-37.461 90.539-37.419s65.536 12.544 90.539 37.589c24.96 25.003 37.461 57.856 37.419 90.539s-12.544 65.536-37.504 90.453l-2.048 2.005c-3.413 3.541-5.803 7.808-7.083 12.288-1.664 5.973-1.365 12.416 1.323 18.517zM784.896 563.115c-0.512 8.576-1.621 12.672-3.243 16.299v-3.413c0-1.835 0.128-3.584 0.341-5.333 0.896-2.56 1.835-5.077 2.901-7.552 0.171-3.84 0.213-3.883 0.213-3.925 10.624-24.789 29.184-43.947 51.541-55.595 15.829-8.235 33.493-12.715 51.669-12.928h7.68c11.776 0 22.4-4.736 30.165-12.501s12.501-18.389 12.501-30.165-4.736-22.4-12.501-30.165-18.389-12.501-30.165-12.501h-3.84c-27.179-0.128-52.053-9.728-71.467-25.728-13.781-11.349-24.789-25.899-32-42.368-10.965-24.832-12.288-51.627-5.419-76.032 5.077-18.048 14.549-34.731 27.819-48.469l3.072-3.115c8.363-8.363 12.544-19.2 12.544-30.165s-4.139-21.845-12.459-30.165c-8.405-8.405-19.243-12.587-30.251-12.587s-21.845 4.139-30.165 12.459l-2.603 2.603c-19.755 19.328-44.373 29.952-69.632 32.085-18.645 1.579-37.632-1.451-55.168-9.045-24.661-10.581-43.819-29.141-55.467-51.456-8.235-15.829-12.715-33.493-12.928-51.669v-7.723c0-11.776-4.736-22.4-12.501-30.165s-18.347-12.459-30.123-12.459-22.4 4.736-30.165 12.501-12.501 18.389-12.501 30.165v3.84c-0.64 28.16-10.88 52.992-27.477 72.192-12.117 13.995-27.563 24.96-45.141 31.744-24.533 10.539-50.901 11.691-74.923 4.949-18.048-5.077-34.731-14.549-48.469-27.819l-3.115-3.072c-8.363-8.363-19.2-12.544-30.165-12.544s-21.845 4.139-30.165 12.459c-8.405 8.405-12.587 19.243-12.587 30.251s4.139 21.845 12.459 30.165l2.603 2.603c19.328 19.755 29.952 44.373 32.085 69.632 1.579 18.645-1.451 37.632-9.045 55.168-10.581 24.661-29.141 43.819-51.456 55.467-15.829 8.235-33.493 12.715-51.669 12.928l-7.68-0.043c-11.776 0-22.4 4.736-30.165 12.501s-12.501 18.389-12.501 30.165 4.736 22.4 12.501 30.165 18.389 12.501 30.165 12.501h3.84c28.16 0.64 52.992 10.88 72.192 27.477 13.995 12.117 24.96 27.563 31.744 45.141 10.539 24.533 11.691 50.901 4.949 74.923-5.077 18.048-14.549 34.731-27.819 48.469l-3.115 3.115c-8.363 8.363-12.544 19.2-12.544 30.165s4.139 21.845 12.459 30.165c8.405 8.405 19.243 12.587 30.251 12.587s21.845-4.139 30.165-12.459l2.603-2.603c19.755-19.328 44.373-29.952 69.632-32.085 15.787-1.365 31.787 0.597 46.976 5.845 4.096 0.512 7.936 1.536 11.349 3.072-1.323-0.043-2.603-0.128-3.797-0.171-8.576-0.512-12.672-1.621-16.299-3.243h3.413c1.835 0 3.584 0.128 5.333 0.341 2.56 0.896 5.077 1.835 7.552 2.901 3.84 0.171 3.883 0.213 3.925 0.213 24.789 10.624 43.947 29.184 55.595 51.541 8.235 15.787 12.715 33.493 12.928 51.627v7.723c0 11.776 4.736 22.4 12.501 30.165s18.389 12.501 30.165 12.501 22.4-4.736 30.165-12.501 12.501-18.389 12.501-30.165v-3.84c0.128-27.179 9.728-52.053 25.728-71.467 11.349-13.781 25.899-24.789 42.496-32.043 24.661-10.88 51.456-12.203 75.861-5.333 18.048 5.077 34.731 14.549 48.469 27.819l3.115 3.072c8.363 8.363 19.2 12.544 30.165 12.544s21.845-4.139 30.165-12.459c8.405-8.405 12.587-19.243 12.587-30.251s-4.139-21.845-12.459-30.165l-2.603-2.603c-19.328-19.755-29.952-44.373-32.085-69.632-1.365-15.787 0.597-31.787 5.845-46.976 0.512-4.053 1.579-7.893 3.072-11.349-0.043 1.365-0.085 2.645-0.171 3.797z" />
<glyph unicode="&#xe948;" glyph-name="share-2" d="M691.797 187.819c1.067 1.408 2.048 2.859 2.987 4.437 0.853 1.493 1.621 3.029 2.304 4.565 3.115 4.608 6.656 8.917 10.581 12.843 15.488 15.488 36.736 25.003 60.331 25.003s44.843-9.515 60.331-25.003 25.003-36.736 25.003-60.331-9.515-44.843-25.003-60.331-36.736-25.003-60.331-25.003-44.843 9.515-60.331 25.003-25.003 36.736-25.003 60.331c0 13.867 3.285 26.923 9.131 38.485zM695.509 701.611c-0.384 0.725-0.768 1.451-1.195 2.176s-0.853 1.451-1.323 2.133c-6.571 12.075-10.325 25.941-10.325 40.747 0 23.595 9.515 44.843 25.003 60.331s36.736 25.003 60.331 25.003 44.843-9.515 60.331-25.003 25.003-36.736 25.003-60.331-9.515-44.843-25.003-60.331-36.736-25.003-60.331-25.003-44.843 9.515-60.331 25.003c-4.608 4.608-8.704 9.728-12.16 15.275zM328.491 493.056c0.384-0.725 0.768-1.451 1.195-2.176s0.853-1.451 1.323-2.133c6.571-12.075 10.325-25.941 10.325-40.747s-3.755-28.672-10.368-40.789c-0.469-0.683-0.896-1.408-1.323-2.133s-0.811-1.408-1.152-2.133c-3.456-5.547-7.552-10.667-12.16-15.275-15.488-15.488-36.736-25.003-60.331-25.003s-44.843 9.515-60.331 25.003-25.003 36.736-25.003 60.331 9.515 44.843 25.003 60.331 36.736 25.003 60.331 25.003 44.843-9.515 60.331-25.003c4.608-4.608 8.704-9.728 12.16-15.275zM603.733 700.245l-226.475-132.139c-0.171 0.213-0.384 0.384-0.597 0.597-30.805 30.805-73.557 49.963-120.661 49.963s-89.856-19.157-120.661-50.005-50.005-73.557-50.005-120.661 19.157-89.856 50.005-120.661 73.557-50.005 120.661-50.005 89.856 19.157 120.661 50.005c0.213 0.213 0.384 0.384 0.597 0.597l226.517-132.011c-4.181-14.805-6.443-30.464-6.443-46.592 0-47.104 19.157-89.856 50.005-120.661s73.557-50.005 120.661-50.005 89.856 19.157 120.661 50.005 50.005 73.557 50.005 120.661-19.157 89.856-50.005 120.661-73.557 50.005-120.661 50.005-89.856-19.157-120.661-50.005c-0.128-0.128-0.299-0.299-0.427-0.427l-226.645 132.053c4.181 14.763 6.4 30.293 6.4 46.379s-2.219 31.659-6.4 46.421l226.475 132.181c0.171-0.213 0.384-0.384 0.597-0.597 30.805-30.848 73.557-50.005 120.661-50.005s89.856 19.157 120.661 50.005 50.005 73.557 50.005 120.661-19.157 89.856-50.005 120.661-73.557 50.005-120.661 50.005-89.856-19.157-120.661-50.005-50.005-73.557-50.005-120.661c0-16.085 2.219-31.659 6.4-46.421z" />
<glyph unicode="&#xe949;" glyph-name="shopping-bag" d="M810.667 746.667h-597.333l64 85.333h469.333zM929.877 729.941l-127.744 170.325c-8.363 11.136-21.077 17.024-34.133 17.067h-512c-13.909 0-26.283-6.656-34.133-17.067l-127.744-170.325c-1.835-2.389-3.456-4.992-4.736-7.765-2.773-5.845-4.096-12.075-4.053-18.176v-597.333c0-35.328 14.379-67.413 37.504-90.496s55.168-37.504 90.496-37.504h597.333c35.328 0 67.413 14.379 90.496 37.504s37.504 55.168 37.504 90.496v597.333c0 9.344-3.029 18.005-8.064 24.96-0.171 0.213-0.299 0.427-0.469 0.64zM170.667 661.333h682.667v-554.667c0-11.776-4.736-22.4-12.501-30.165s-18.389-12.501-30.165-12.501h-597.333c-11.776 0-22.4 4.736-30.165 12.501s-12.501 18.389-12.501 30.165zM640 533.333c0-35.371-14.293-67.285-37.504-90.496s-55.125-37.504-90.496-37.504-67.285 14.293-90.496 37.504-37.504 55.125-37.504 90.496c0 23.552-19.115 42.667-42.667 42.667s-42.667-19.115-42.667-42.667c0-58.88 23.936-112.299 62.464-150.869s91.989-62.464 150.869-62.464 112.299 23.936 150.869 62.464 62.464 91.989 62.464 150.869c0 23.552-19.115 42.667-42.667 42.667s-42.667-19.115-42.667-42.667z" />
<glyph unicode="&#xe94a;" glyph-name="shopping-cart" d="M469.333 64c0 23.552-9.6 44.928-25.003 60.331s-36.779 25.003-60.331 25.003-44.928-9.6-60.331-25.003-25.003-36.779-25.003-60.331 9.6-44.928 25.003-60.331 36.779-25.003 60.331-25.003 44.928 9.6 60.331 25.003 25.003 36.779 25.003 60.331zM938.667 64c0 23.552-9.6 44.928-25.003 60.331s-36.779 25.003-60.331 25.003-44.928-9.6-60.331-25.003-25.003-36.779-25.003-60.331 9.6-44.928 25.003-60.331 36.779-25.003 60.331-25.003 44.928 9.6 60.331 25.003 25.003 36.779 25.003 60.331zM308.096 661.333h621.653l-58.496-306.816c-1.963-9.728-7.083-18.133-14.165-24.235-7.68-6.656-17.621-10.496-29.355-10.283h-415.317c-9.899-0.128-19.243 3.029-26.709 8.661-8.107 6.101-14.037 14.976-16.171 25.728zM42.667 874.667h135.68l36.181-180.864c4.608-18.645 21.419-32.469 41.472-32.469h52.096l-17.067 85.333h-35.029c-23.552 0-42.667-19.115-42.667-42.667 0-2.261 0.171-4.48 0.512-6.613 0.171-1.195 0.427-2.432 0.725-3.584l71.296-356.139c6.357-32.043 24.32-59.008 48.64-77.269 22.229-16.725 49.92-26.155 79.104-25.728h414.123c31.915-0.64 62.080 11.136 85.12 31.019 21.077 18.176 36.181 43.221 42.027 71.808l68.352 358.485c4.395 23.168-10.752 45.483-33.92 49.92-2.773 0.555-5.547 0.811-7.979 0.768h-690.347l-35.84 179.029c-4.011 19.712-21.205 34.304-41.813 34.304h-170.667c-23.552 0-42.667-19.115-42.667-42.667s19.115-42.667 42.667-42.667z" />
<glyph unicode="&#xe94b;" glyph-name="star1" d="M550.272 893.568c-3.925 8.064-10.581 15.019-19.371 19.371-21.12 10.411-46.72 1.749-57.131-19.371l-121.941-246.997-272.683-39.893c-8.875-1.237-17.536-5.419-24.363-12.416-16.469-16.896-16.085-43.904 0.768-60.331l197.248-192.128-46.549-271.445c-1.536-8.832-0.256-18.389 4.309-27.051 10.965-20.864 36.779-28.885 57.643-17.92l243.797 128.213 243.84-128.213c7.936-4.224 17.408-5.931 27.051-4.309 23.211 3.968 38.827 26.027 34.859 49.28l-46.549 271.445 197.248 192.128c6.443 6.229 11.051 14.677 12.459 24.405 3.413 23.296-12.715 44.971-36.053 48.384l-272.64 39.851zM512 778.283l93.568-189.611c6.443-13.013 18.603-21.291 32.085-23.339l209.323-30.592-151.424-147.499c-10.411-10.155-14.549-24.277-12.288-37.76l35.712-208.341-187.136 98.432c-12.843 6.741-27.605 6.315-39.723 0l-187.136-98.432 35.712 208.341c2.475 14.336-2.517 28.203-12.288 37.76l-151.424 147.499 209.365 30.635c14.336 2.091 25.984 11.093 32.085 23.296z" />
<glyph unicode="&#xe94c;" glyph-name="user1" d="M896 64v85.333c0 58.88-23.936 112.299-62.464 150.869s-91.989 62.464-150.869 62.464h-341.333c-58.88 0-112.299-23.936-150.869-62.464s-62.464-91.989-62.464-150.869v-85.333c0-23.552 19.115-42.667 42.667-42.667s42.667 19.115 42.667 42.667v85.333c0 35.371 14.293 67.285 37.504 90.496s55.125 37.504 90.496 37.504h341.333c35.371 0 67.285-14.293 90.496-37.504s37.504-55.125 37.504-90.496v-85.333c0-23.552 19.115-42.667 42.667-42.667s42.667 19.115 42.667 42.667zM725.333 661.333c0 58.88-23.936 112.299-62.464 150.869s-91.989 62.464-150.869 62.464-112.299-23.936-150.869-62.464-62.464-91.989-62.464-150.869 23.936-112.299 62.464-150.869 91.989-62.464 150.869-62.464 112.299 23.936 150.869 62.464 62.464 91.989 62.464 150.869zM640 661.333c0-35.371-14.293-67.285-37.504-90.496s-55.125-37.504-90.496-37.504-67.285 14.293-90.496 37.504-37.504 55.125-37.504 90.496 14.293 67.285 37.504 90.496 55.125 37.504 90.496 37.504 67.285-14.293 90.496-37.504 37.504-55.125 37.504-90.496z" />
<glyph unicode="&#xe94d;" glyph-name="close" d="M225.835 673.835l225.835-225.835-225.835-225.835c-16.683-16.683-16.683-43.691 0-60.331s43.691-16.683 60.331 0l225.835 225.835 225.835-225.835c16.683-16.683 43.691-16.683 60.331 0s16.683 43.691 0 60.331l-225.835 225.835 225.835 225.835c16.683 16.683 16.683 43.691 0 60.331s-43.691 16.683-60.331 0l-225.835-225.835-225.835 225.835c-16.683 16.683-43.691 16.683-60.331 0s-16.683-43.691 0-60.331z" />
<glyph unicode="&#xe94e;" glyph-name="x-circle" d="M981.333 448c0 129.579-52.565 246.997-137.472 331.861s-202.283 137.472-331.861 137.472-246.997-52.565-331.861-137.472-137.472-202.283-137.472-331.861 52.565-246.997 137.472-331.861 202.283-137.472 331.861-137.472 246.997 52.565 331.861 137.472 137.472 202.283 137.472 331.861zM896 448c0-106.069-42.923-201.984-112.469-271.531s-165.461-112.469-271.531-112.469-201.984 42.923-271.531 112.469-112.469 165.461-112.469 271.531 42.923 201.984 112.469 271.531 165.461 112.469 271.531 112.469 201.984-42.923 271.531-112.469 112.469-165.461 112.469-271.531zM353.835 545.835l97.835-97.835-97.835-97.835c-16.683-16.683-16.683-43.691 0-60.331s43.691-16.683 60.331 0l97.835 97.835 97.835-97.835c16.683-16.683 43.691-16.683 60.331 0s16.683 43.691 0 60.331l-97.835 97.835 97.835 97.835c16.683 16.683 16.683 43.691 0 60.331s-43.691 16.683-60.331 0l-97.835-97.835-97.835 97.835c-16.683 16.683-43.691 16.683-60.331 0s-16.683-43.691 0-60.331z" />
<glyph unicode="&#xe94f;" glyph-name="zoom-in" d="M684.416 283.477c-1.451-1.109-2.859-2.347-4.224-3.712s-2.56-2.731-3.712-4.224c-53.675-51.755-126.677-83.541-207.147-83.541-82.475 0-157.099 33.365-211.2 87.467s-87.467 128.725-87.467 211.2 33.365 157.099 87.467 211.2 128.725 87.467 211.2 87.467 157.099-33.365 211.2-87.467 87.467-128.725 87.467-211.2c0-80.469-31.787-153.472-83.584-207.189zM926.165 94.165l-156.8 156.8c52.523 65.707 83.968 149.035 83.968 239.701 0 106.027-43.008 202.069-112.469 271.531s-165.504 112.469-271.531 112.469-202.069-43.008-271.531-112.469-112.469-165.504-112.469-271.531 43.008-202.069 112.469-271.531 165.504-112.469 271.531-112.469c90.667 0 173.995 31.445 239.701 83.968l156.8-156.8c16.683-16.683 43.691-16.683 60.331 0s16.683 43.691 0 60.331zM341.333 448h85.333v-85.333c0-23.552 19.115-42.667 42.667-42.667s42.667 19.115 42.667 42.667v85.333h85.333c23.552 0 42.667 19.115 42.667 42.667s-19.115 42.667-42.667 42.667h-85.333v85.333c0 23.552-19.115 42.667-42.667 42.667s-42.667-19.115-42.667-42.667v-85.333h-85.333c-23.552 0-42.667-19.115-42.667-42.667s19.115-42.667 42.667-42.667z" />
<glyph unicode="&#xe950;" glyph-name="zoom-out" d="M684.416 283.477c-1.451-1.109-2.859-2.347-4.224-3.712s-2.56-2.731-3.712-4.224c-53.675-51.755-126.677-83.541-207.147-83.541-82.475 0-157.099 33.365-211.2 87.467s-87.467 128.725-87.467 211.2 33.365 157.099 87.467 211.2 128.725 87.467 211.2 87.467 157.099-33.365 211.2-87.467 87.467-128.725 87.467-211.2c0-80.469-31.787-153.472-83.584-207.189zM926.165 94.165l-156.8 156.8c52.523 65.707 83.968 149.035 83.968 239.701 0 106.027-43.008 202.069-112.469 271.531s-165.504 112.469-271.531 112.469-202.069-43.008-271.531-112.469-112.469-165.504-112.469-271.531 43.008-202.069 112.469-271.531 165.504-112.469 271.531-112.469c90.667 0 173.995 31.445 239.701 83.968l156.8-156.8c16.683-16.683 43.691-16.683 60.331 0s16.683 43.691 0 60.331zM341.333 448h256c23.552 0 42.667 19.115 42.667 42.667s-19.115 42.667-42.667 42.667h-256c-23.552 0-42.667-19.115-42.667-42.667s19.115-42.667 42.667-42.667z" />
<glyph unicode="&#xe951;" glyph-name="minus" d="M213.333 405.333h597.333c23.552 0 42.667 19.115 42.667 42.667s-19.115 42.667-42.667 42.667h-597.333c-23.552 0-42.667-19.115-42.667-42.667s19.115-42.667 42.667-42.667z" />
<glyph unicode="&#xe952;" glyph-name="document-file-ott" d="M672 544v96l-192 224h-351.912c-35.395 0-64.088-28.747-64.088-64.235v-735.531c0-35.476 28.51-64.235 63.918-64.235h480.165c35.301 0 63.918 28.743 63.918 63.705v64.295h255.781c53.14 0 96.219 42.952 96.219 95.961v224.078c0 52.998-42.752 95.961-96.219 95.961h-255.781zM640 128v-64.211c0-17.55-14.326-31.789-31.999-31.789h-480.003c-17.448 0-31.999 14.262-31.999 31.855v736.291c0 17.286 14.264 31.855 31.858 31.855h320.142v-159.811c0-35.82 28.624-64.189 63.933-64.189h128.067v-64h-255.781c-53.14 0-96.219-42.952-96.219-95.961v-224.078c0-52.998 42.752-95.961 96.219-95.961h255.781zM480 816l150.398-176h-118.503c-17.475 0-31.896 14.453-31.896 32.281v143.719zM383.826 512h544.348c34.951 0 63.826-28.539 63.826-63.745v-224.511c0-34.939-28.576-63.745-63.826-63.745h-544.348c-34.951 0-63.826 28.539-63.826 63.745v224.511c0 34.939 28.576 63.745 63.826 63.745zM448.156 448h31.688c35.551 0 64.156-28.739 64.156-64.189v-95.621c0-35.82-28.724-64.189-64.156-64.189h-31.688c-35.551 0-64.156 28.739-64.156 64.189v95.621c0 35.82 28.724 64.189 64.156 64.189zM447.967 416c-17.655 0-31.967-14.199-31.967-31.994v-96.012c0-17.67 14.165-31.994 31.967-31.994h32.067c17.655 0 31.967 14.199 31.967 31.994v96.012c0 17.67-14.165 31.994-31.967 31.994h-32.067zM640 416v-192h32v192h64v32h-160v-32h64zM832 416v-192h32v192h64v32h-160v-32h64z" />
<glyph unicode="&#xe953;" glyph-name="document-file-zip" d="M672 544v96l-192 224h-351.912c-35.395 0-64.088-28.747-64.088-64.235v-735.531c0-35.476 28.51-64.235 63.918-64.235h480.165c35.301 0 63.918 28.743 63.918 63.705v64.295h255.781c53.14 0 96.219 42.952 96.219 95.961v224.078c0 52.998-42.752 95.961-96.219 95.961h-255.781zM640 128v-64.211c0-17.55-14.326-31.789-31.999-31.789h-480.003c-17.448 0-31.999 14.262-31.999 31.855v736.291c0 17.286 14.264 31.855 31.858 31.855h320.142v-159.811c0-35.82 28.624-64.189 63.933-64.189h128.067v-64h-255.781c-53.14 0-96.219-42.952-96.219-95.961v-224.078c0-52.998 42.752-95.961 96.219-95.961h255.781zM480 816l150.398-176h-118.503c-17.475 0-31.896 14.453-31.896 32.281v143.719zM383.826 512h544.348c34.951 0 63.826-28.539 63.826-63.745v-224.511c0-34.939-28.576-63.745-63.826-63.745h-544.348c-34.951 0-63.826 28.539-63.826 63.745v224.511c0 34.939 28.576 63.745 63.826 63.745zM448 256l128 160v32h-160v-32h128l-128-160v-32h160v32h-128zM640 416v-160h-32v-32h96v32h-32v160h32v32h-96v-32h32zM736 384v64h95.844c35.551 0 64.156-28.654 64.156-64 0-35.593-28.724-64-64.156-64h-63.844v-96h-32v160zM768 416v-64h64.033c17.655 0 31.967 14.204 31.967 32 0 17.673-14.165 32-31.967 32h-64.033z" />
<glyph unicode="&#xe954;" glyph-name="document-file-wav" d="M672 544v96l-192 224h-351.912c-35.395 0-64.088-28.747-64.088-64.235v-735.531c0-35.476 28.51-64.235 63.918-64.235h480.165c35.301 0 63.918 28.743 63.918 63.705v64.295h255.781c53.14 0 96.219 42.952 96.219 95.961v224.078c0 52.998-42.752 95.961-96.219 95.961h-255.781zM640 128v-64.211c0-17.55-14.326-31.789-31.999-31.789h-480.003c-17.448 0-31.999 14.262-31.999 31.855v736.291c0 17.286 14.264 31.855 31.858 31.855h320.142v-159.811c0-35.82 28.624-64.189 63.933-64.189h128.067v-64h-255.781c-53.14 0-96.219-42.952-96.219-95.961v-224.078c0-52.998 42.752-95.961 96.219-95.961h255.781zM480 816l150.398-176h-118.503c-17.475 0-31.896 14.453-31.896 32.281v143.719zM383.826 512h544.348c34.951 0 63.826-28.539 63.826-63.745v-224.511c0-34.939-28.576-63.745-63.826-63.745h-544.348c-34.951 0-63.826 28.539-63.826 63.745v224.511c0 34.939 28.576 63.745 63.826 63.745zM528 224h-16l-48 96-48-96h-32v224h32v-160l32 64h32l32-64v160h32v-224h-16zM704 320h-96v-96h-32v160c0 35.593 28.724 64 64.156 64h31.688c35.551 0 64.156-28.654 64.156-64v-160h-32v96zM639.967 416c-17.655 0-31.967-14.204-31.967-32v-32h96v32c0 17.673-14.165 32-31.967 32h-32.067zM848 280l48 168h32l-64-224h-32l-64 224h32l48-168z" />
<glyph unicode="&#xe955;" glyph-name="document-file-3gp" d="M672 544v96l-192 224h-351.912c-35.395 0-64.088-28.747-64.088-64.235v-735.531c0-35.476 28.51-64.235 63.918-64.235h480.165c35.301 0 63.918 28.743 63.918 63.705v64.295h255.781c53.14 0 96.219 42.952 96.219 95.961v224.078c0 52.998-42.752 95.961-96.219 95.961h-255.781zM640 128v-64.211c0-17.55-14.326-31.789-31.999-31.789h-480.003c-17.448 0-31.999 14.262-31.999 31.855v736.291c0 17.286 14.264 31.855 31.858 31.855h320.142v-159.811c0-35.82 28.624-64.189 63.933-64.189h128.067v-64h-255.781c-53.14 0-96.219-42.952-96.219-95.961v-224.078c0-52.998 42.752-95.961 96.219-95.961h255.781zM480 816l150.398-176h-118.503c-17.475 0-31.896 14.453-31.896 32.281v143.719zM383.826 512h544.348c34.951 0 63.826-28.539 63.826-63.745v-224.511c0-34.939-28.576-63.745-63.826-63.745h-544.348c-34.951 0-63.826 28.539-63.826 63.745v224.511c0 34.939 28.576 63.745 63.826 63.745zM384 384c0 35.593 28.724 64 64.156 64h31.688c35.551 0 64.156-28.654 64.156-64 0-19.214-8.37-36.334-21.648-48.021 13.292-11.727 21.648-28.875 21.648-47.979 0-35.593-28.724-64-64.156-64h-31.688c-35.551 0-64.156 28.654-64.156 64h32c0-17.673 14.165-32 31.967-32h32.067c17.655 0 31.967 14.204 31.967 32 0 17.673-14.165 32-31.967 32h-32.033v32h32.033c17.655 0 31.967 14.204 31.967 32 0 17.673-14.165 32-31.967 32h-32.067c-17.655 0-31.967-14.204-31.967-32h-32zM704 320v-64h-64.006c-17.795 0-31.994 14.324-31.994 31.994v96.012c0 17.795 14.324 31.994 31.994 31.994h96.006v32h-95.844c-35.432 0-64.156-28.37-64.156-64.189v-95.621c0-35.451 28.605-64.189 64.156-64.189h95.844v128h-96v-32h64zM768 384v64h95.844c35.551 0 64.156-28.654 64.156-64 0-35.593-28.724-64-64.156-64h-63.844v-96h-32v160zM800 416v-64h64.033c17.655 0 31.967 14.204 31.967 32 0 17.673-14.165 32-31.967 32h-64.033z" />
<glyph unicode="&#xe956;" glyph-name="document-file-mid" d="M672 544v96l-192 224h-351.912c-35.395 0-64.088-28.747-64.088-64.235v-735.531c0-35.476 28.51-64.235 63.918-64.235h480.165c35.301 0 63.918 28.743 63.918 63.705v64.295h255.781c53.14 0 96.219 42.952 96.219 95.961v224.078c0 52.998-42.752 95.961-96.219 95.961h-255.781zM640 128v-64.211c0-17.55-14.326-31.789-31.999-31.789h-480.003c-17.448 0-31.999 14.262-31.999 31.855v736.291c0 17.286 14.264 31.855 31.858 31.855h320.142v-159.811c0-35.82 28.624-64.189 63.933-64.189h128.067v-64h-255.781c-53.14 0-96.219-42.952-96.219-95.961v-224.078c0-52.998 42.752-95.961 96.219-95.961h255.781zM480 816l150.398-176h-118.503c-17.475 0-31.896 14.453-31.896 32.281v143.719zM383.826 512h544.348c34.951 0 63.826-28.539 63.826-63.745v-224.511c0-34.939-28.576-63.745-63.826-63.745h-544.348c-34.951 0-63.826 28.539-63.826 63.745v224.511c0 34.939 28.576 63.745 63.826 63.745zM496 352l-48 96h-32v-224h32v160l32-64h32l32 64v-160h32v224h-32l-48-96zM640 416v-160h-32v-32h96v32h-32v160h32v32h-96v-32h32zM736 448h95.844c35.551 0 64.156-28.739 64.156-64.189v-95.621c0-35.82-28.724-64.189-64.156-64.189h-95.844v224zM768 416v-160h64.033c17.655 0 31.967 14.199 31.967 31.994v96.012c0 17.67-14.165 31.994-31.967 31.994h-64.033z" />
<glyph unicode="&#xe957;" glyph-name="document-file-mpg" d="M672 544v96l-192 224h-351.912c-35.395 0-64.088-28.747-64.088-64.235v-735.531c0-35.476 28.51-64.235 63.918-64.235h480.165c35.301 0 63.918 28.743 63.918 63.705v64.295h255.781c53.14 0 96.219 42.952 96.219 95.961v224.078c0 52.998-42.752 95.961-96.219 95.961h-255.781zM640 128v-64.211c0-17.55-14.326-31.789-31.999-31.789h-480.003c-17.448 0-31.999 14.262-31.999 31.855v736.291c0 17.286 14.264 31.855 31.858 31.855h320.142v-159.811c0-35.82 28.624-64.189 63.933-64.189h128.067v-64h-255.781c-53.14 0-96.219-42.952-96.219-95.961v-224.078c0-52.998 42.752-95.961 96.219-95.961h255.781zM480 816l150.398-176h-118.503c-17.475 0-31.896 14.453-31.896 32.281v143.719zM383.826 512h544.348c34.951 0 63.826-28.539 63.826-63.745v-224.511c0-34.939-28.576-63.745-63.826-63.745h-544.348c-34.951 0-63.826 28.539-63.826 63.745v224.511c0 34.939 28.576 63.745 63.826 63.745zM464 352l-48 96h-32v-224h32v160l32-64h32l32 64v-160h32v224h-32l-48-96zM576 384v64h95.844c35.551 0 64.156-28.654 64.156-64 0-35.593-28.724-64-64.156-64h-63.844v-96h-32v160zM608 416v-64h64.033c17.655 0 31.967 14.204 31.967 32 0 17.673-14.165 32-31.967 32h-64.033zM896 320v-64h-64.006c-17.795 0-31.994 14.324-31.994 31.994v96.012c0 17.795 14.324 31.994 31.994 31.994h96.006v32h-95.844c-35.432 0-64.156-28.37-64.156-64.189v-95.621c0-35.451 28.605-64.189 64.156-64.189h95.844v128h-96v-32h64z" />
<glyph unicode="&#xe958;" glyph-name="document-file-flv" d="M672 544v96l-192 224h-351.912c-35.395 0-64.088-28.747-64.088-64.235v-735.531c0-35.476 28.51-64.235 63.918-64.235h480.165c35.301 0 63.918 28.743 63.918 63.705v64.295h255.781c53.14 0 96.219 42.952 96.219 95.961v224.078c0 52.998-42.752 95.961-96.219 95.961h-255.781zM640 128v-64.211c0-17.55-14.326-31.789-31.999-31.789h-480.003c-17.448 0-31.999 14.262-31.999 31.855v736.291c0 17.286 14.264 31.855 31.858 31.855h320.142v-159.811c0-35.82 28.624-64.189 63.933-64.189h128.067v-64h-255.781c-53.14 0-96.219-42.952-96.219-95.961v-224.078c0-52.998 42.752-95.961 96.219-95.961h255.781zM480 816l150.398-176h-118.503c-17.475 0-31.896 14.453-31.896 32.281v143.719zM383.826 512h544.348c34.951 0 63.826-28.539 63.826-63.745v-224.511c0-34.939-28.576-63.745-63.826-63.745h-544.348c-34.951 0-63.826 28.539-63.826 63.745v224.511c0 34.939 28.576 63.745 63.826 63.745zM416 352v64h128v32h-160v-224h32v96h96v32h-96zM736 256v-32h-160v224h32v-192h128zM848 280l48 168h32l-64-224h-32l-64 224h32l48-168z" />
<glyph unicode="&#xe959;" glyph-name="document-file-m4v" d="M672 544v96l-192 224h-351.912c-35.395 0-64.088-28.747-64.088-64.235v-735.531c0-35.476 28.51-64.235 63.918-64.235h480.165c35.301 0 63.918 28.743 63.918 63.705v64.295h255.781c53.14 0 96.219 42.952 96.219 95.961v224.078c0 52.998-42.752 95.961-96.219 95.961h-255.781zM640 128v-64.211c0-17.55-14.326-31.789-31.999-31.789h-480.003c-17.448 0-31.999 14.262-31.999 31.855v736.291c0 17.286 14.264 31.855 31.858 31.855h320.142v-159.811c0-35.82 28.624-64.189 63.933-64.189h128.067v-64h-255.781c-53.14 0-96.219-42.952-96.219-95.961v-224.078c0-52.998 42.752-95.961 96.219-95.961h255.781zM480 816l150.398-176h-118.503c-17.475 0-31.896 14.453-31.896 32.281v143.719zM383.826 512h544.348c34.951 0 63.826-28.539 63.826-63.745v-224.511c0-34.939-28.576-63.745-63.826-63.745h-544.348c-34.951 0-63.826 28.539-63.826 63.745v224.511c0 34.939 28.576 63.745 63.826 63.745zM464 352l-48 96h-32v-224h32v160l32-64h32l32 64v-160h32v224h-32l-48-96zM672 320h-57.6l57.6 80v-80zM672 288v-64h32v64h32v32h-32v128h-32l-96-128v-32h96zM848 280l48 168h32l-64-224h-32l-64 224h32l48-168z" />
<glyph unicode="&#xe95a;" glyph-name="document-file-rtf" d="M672 544v96l-192 224h-351.912c-35.395 0-64.088-28.747-64.088-64.235v-735.531c0-35.476 28.51-64.235 63.918-64.235h480.165c35.301 0 63.918 28.743 63.918 63.705v64.295h255.781c53.14 0 96.219 42.952 96.219 95.961v224.078c0 52.998-42.752 95.961-96.219 95.961h-255.781zM640 128v-64.211c0-17.55-14.326-31.789-31.999-31.789h-480.003c-17.448 0-31.999 14.262-31.999 31.855v736.291c0 17.286 14.264 31.855 31.858 31.855h320.142v-159.811c0-35.82 28.624-64.189 63.933-64.189h128.067v-64h-255.781c-53.14 0-96.219-42.952-96.219-95.961v-224.078c0-52.998 42.752-95.961 96.219-95.961h255.781zM480 816l150.398-176h-118.503c-17.475 0-31.896 14.453-31.896 32.281v143.719zM383.826 512h544.348c34.951 0 63.826-28.539 63.826-63.745v-224.511c0-34.939-28.576-63.745-63.826-63.745h-544.348c-34.951 0-63.826 28.539-63.826 63.745v224.511c0 34.939 28.576 63.745 63.826 63.745zM441.6 320h-25.6v-96h-32v224h95.844c35.551 0 64.156-28.654 64.156-64 0-35.54-28.639-63.916-64-64l64-96h-38.4l-64 96zM416 416v-64h64.033c17.655 0 31.967 14.204 31.967 32 0 17.673-14.165 32-31.967 32h-64.033zM640 416v-192h32v192h64v32h-160v-32h64zM800 352v64h128v32h-160v-224h32v96h96v32h-96z" />
<glyph unicode="&#xe95b;" glyph-name="document-file-txt" d="M672 544v96l-192 224h-351.912c-35.395 0-64.088-28.747-64.088-64.235v-735.531c0-35.476 28.51-64.235 63.918-64.235h480.165c35.301 0 63.918 28.743 63.918 63.705v64.295h255.781c53.14 0 96.219 42.952 96.219 95.961v224.078c0 52.998-42.752 95.961-96.219 95.961h-255.781zM640 128v-64.211c0-17.55-14.326-31.789-31.999-31.789h-480.003c-17.448 0-31.999 14.262-31.999 31.855v736.291c0 17.286 14.264 31.855 31.858 31.855h320.142v-159.811c0-35.82 28.624-64.189 63.933-64.189h128.067v-64h-255.781c-53.14 0-96.219-42.952-96.219-95.961v-224.078c0-52.998 42.752-95.961 96.219-95.961h255.781zM480 816l150.398-176h-118.503c-17.475 0-31.896 14.453-31.896 32.281v143.719zM383.826 512h544.348c34.951 0 63.826-28.539 63.826-63.745v-224.511c0-34.939-28.576-63.745-63.826-63.745h-544.348c-34.951 0-63.826 28.539-63.826 63.745v224.511c0 34.939 28.576 63.745 63.826 63.745zM448 416v-192h32v192h64v32h-160v-32h64zM640 336l-64 112h32l48-84 48 84h32l-64-112 64-112h-32l-48 84-48-84h-32l64 112zM832 416v-192h32v192h64v32h-160v-32h64z" />
<glyph unicode="&#xe95c;" glyph-name="document-file-pps" d="M672 544v96l-192 224h-351.912c-35.395 0-64.088-28.747-64.088-64.235v-735.531c0-35.476 28.51-64.235 63.918-64.235h480.165c35.301 0 63.918 28.743 63.918 63.705v64.295h255.781c53.14 0 96.219 42.952 96.219 95.961v224.078c0 52.998-42.752 95.961-96.219 95.961h-255.781zM640 128v-64.211c0-17.55-14.326-31.789-31.999-31.789h-480.003c-17.448 0-31.999 14.262-31.999 31.855v736.291c0 17.286 14.264 31.855 31.858 31.855h320.142v-159.811c0-35.82 28.624-64.189 63.933-64.189h128.067v-64h-255.781c-53.14 0-96.219-42.952-96.219-95.961v-224.078c0-52.998 42.752-95.961 96.219-95.961h255.781zM480 816l150.398-176h-118.503c-17.475 0-31.896 14.453-31.896 32.281v143.719zM383.826 512h544.348c34.951 0 63.826-28.539 63.826-63.745v-224.511c0-34.939-28.576-63.745-63.826-63.745h-544.348c-34.951 0-63.826 28.539-63.826 63.745v224.511c0 34.939 28.576 63.745 63.826 63.745zM576 384v64h95.844c35.551 0 64.156-28.654 64.156-64 0-35.593-28.724-64-64.156-64h-63.844v-96h-32v160zM608 416v-64h64.033c17.655 0 31.967 14.204 31.967 32 0 17.673-14.165 32-31.967 32h-64.033zM384 384v64h95.844c35.551 0 64.156-28.654 64.156-64 0-35.593-28.724-64-64.156-64h-63.844v-96h-32v160zM416 416v-64h64.033c17.655 0 31.967 14.204 31.967 32 0 17.673-14.165 32-31.967 32h-64.033zM832.156 448c-35.432 0-64.156-28.407-64.156-64 0-35.346 28.407-64 64-64h31.7c17.839 0 32.3-14.204 32.3-32 0-17.673-14.165-32-31.967-32h-32.067c-17.655 0-31.967 14.601-31.967 31.857v0.362h-32v-0.184c0-35.365 28.605-64.035 64.156-64.035h31.688c35.432 0 64.156 28.407 64.156 64 0 35.346-28.407 64-64 64h-31.7c-17.839 0-32.3 14.204-32.3 32 0 17.673 14.165 32 31.967 32h32.067c17.655 0 31.967-14.502 31.967-32h32c0 35.346-28.605 64-64.156 64h-31.688z" />
</font>
</defs>
</svg>
