<?xml version="1.0" encoding="UTF-8" standalone="no"?>
<svg
   xmlns:dc="http://purl.org/dc/elements/1.1/"
   xmlns:cc="http://creativecommons.org/ns#"
   xmlns:rdf="http://www.w3.org/1999/02/22-rdf-syntax-ns#"
   xmlns:svg="http://www.w3.org/2000/svg"
   xmlns="http://www.w3.org/2000/svg"
   version="1.1"
   id="Capa_1"
   x="0px"
   y="0px"
   viewBox="0 0 24 24"
   xml:space="preserve"
   width="24"
   height="24"><metadata
   id="metadata45"><rdf:RDF><cc:Work
       rdf:about=""><dc:format>image/svg+xml</dc:format><dc:type
         rdf:resource="http://purl.org/dc/dcmitype/StillImage" /><dc:title></dc:title></cc:Work></rdf:RDF></metadata><defs
   id="defs43" />
<path
   style="fill:#1a5fb4;stroke-width:0.046875;fill-opacity:1"
   d="M 21,0 H 3 C 1.3455,0 0,1.3455 0,3 v 13.5 c 0,1.6545 1.3455,3 3,3 h 1.5 v 3.75 c 0,0.291 0.168,0.5565 0.432,0.6795 C 5.0325,23.976 5.142,24 5.25,24 5.4225,24 5.5935,23.94 5.73,23.826 L 10.9215,19.5 H 21 c 1.6545,0 3,-1.3455 3,-3 V 3 C 24,1.3455 22.6545,0 21,0 Z"
   id="path2" />
<g
   id="g8"
   transform="scale(0.046875)">
	<path
   style="fill:#fafafa"
   d="M 272,256 H 144 c -8.832,0 -16,-7.168 -16,-16 0,-8.832 7.168,-16 16,-16 h 128 c 8.832,0 16,7.168 16,16 0,8.832 -7.168,16 -16,16 z"
   id="path4" />
	<path
   style="fill:#fafafa"
   d="M 368,160 H 144 c -8.832,0 -16,-7.168 -16,-16 0,-8.832 7.168,-16 16,-16 h 224 c 8.832,0 16,7.168 16,16 0,8.832 -7.168,16 -16,16 z"
   id="path6" />
</g>
<g
   id="g10">
</g>
<g
   id="g12">
</g>
<g
   id="g14">
</g>
<g
   id="g16">
</g>
<g
   id="g18">
</g>
<g
   id="g20">
</g>
<g
   id="g22">
</g>
<g
   id="g24">
</g>
<g
   id="g26">
</g>
<g
   id="g28">
</g>
<g
   id="g30">
</g>
<g
   id="g32">
</g>
<g
   id="g34">
</g>
<g
   id="g36">
</g>
<g
   id="g38">
</g>
</svg>
