<?xml version="1.0" encoding="UTF-8" standalone="no"?>
<svg
   xmlns:dc="http://purl.org/dc/elements/1.1/"
   xmlns:cc="http://creativecommons.org/ns#"
   xmlns:rdf="http://www.w3.org/1999/02/22-rdf-syntax-ns#"
   xmlns:svg="http://www.w3.org/2000/svg"
   xmlns="http://www.w3.org/2000/svg"
   version="1.1"
   id="Capa_1"
   x="0px"
   y="0px"
   viewBox="0 0 24.000001 24.000003"
   xml:space="preserve"
   width="24"
   height="24.000002"><metadata
   id="metadata47"><rdf:RDF><cc:Work
       rdf:about=""><dc:format>image/svg+xml</dc:format><dc:type
         rdf:resource="http://purl.org/dc/dcmitype/StillImage" /><dc:title></dc:title></cc:Work></rdf:RDF></metadata><defs
   id="defs45" />
<path
   style="fill:#999999;stroke-width:0.0468704"
   d="M 21.75,7.4985315 H 21 v 6.6315145 c 0,2.104275 -1.710937,3.814877 -3.815625,3.814877 H 13.65 l -2.5125,2.41359 c -0.407812,0.388986 -0.928125,0.613942 -1.4859375,0.637375 0.032813,0 0.060937,0.0047 0.09375,0.0047 h 3.3750005 l 2.025,2.699472 c 0.140625,0.187463 0.35625,0.295254 0.590625,0.299941 0.0047,0 0.0047,0 0.0094,0 0.229687,0 0.445312,-0.103106 0.590625,-0.285882 l 2.146875,-2.713531 H 21.75 c 1.242188,0 2.25,-1.007615 2.25,-2.249559 V 9.748091 C 24,8.5061467 22.992188,7.4985315 21.75,7.4985315 Z"
   id="path2" />
<path
   style="fill:#1a5fb4;stroke-width:0.0468704;fill-opacity:1"
   d="m 17.25,0 h -15 C 1.0078125,0 0,1.0076152 0,2.2495595 V 14.24721 c 0,1.241945 1.0078125,2.249559 2.25,2.249559 h 4.190625 l 2.7796875,2.779144 c 0.1453125,0.145284 0.3375,0.220269 0.5296875,0.220269 0.1875,0 0.375,-0.0703 0.520313,-0.210897 l 2.901562,-2.788516 H 17.25 c 1.242188,0 2.25,-1.007614 2.25,-2.249559 V 2.2495595 C 19.5,1.0076152 18.492188,0 17.25,0 Z"
   id="path4" />
<g
   id="g10"
   transform="matrix(0.046875,0,0,0.04686582,-0.00234375,0)">
	<path
   style="fill:#fafafa"
   d="m 304.05,128 h -192 c -8.8,0 -16,7.2 -16,16 0,8.8 7.2,16 16,16 h 192 c 8.8,0 16,-7.2 16,-16 0,-8.8 -7.2,-16 -16,-16 z"
   id="path6" />
	<path
   style="fill:#fafafa"
   d="m 240.05,192 h -128 c -8.8,0 -16,7.2 -16,16 0,8.8 7.2,16 16,16 h 128 c 8.8,0 16,-7.2 16,-16 0,-8.8 -7.2,-16 -16,-16 z"
   id="path8" />
</g>
<g
   id="g12"
   transform="translate(-0.05)">
</g>
<g
   id="g14"
   transform="translate(-0.05)">
</g>
<g
   id="g16"
   transform="translate(-0.05)">
</g>
<g
   id="g18"
   transform="translate(-0.05)">
</g>
<g
   id="g20"
   transform="translate(-0.05)">
</g>
<g
   id="g22"
   transform="translate(-0.05)">
</g>
<g
   id="g24"
   transform="translate(-0.05)">
</g>
<g
   id="g26"
   transform="translate(-0.05)">
</g>
<g
   id="g28"
   transform="translate(-0.05)">
</g>
<g
   id="g30"
   transform="translate(-0.05)">
</g>
<g
   id="g32"
   transform="translate(-0.05)">
</g>
<g
   id="g34"
   transform="translate(-0.05)">
</g>
<g
   id="g36"
   transform="translate(-0.05)">
</g>
<g
   id="g38"
   transform="translate(-0.05)">
</g>
<g
   id="g40"
   transform="translate(-0.05)">
</g>
</svg>
